<?xml version="1.0" encoding="UTF-8" standalone="no"?>
<!-- Created with Inkscape (http://www.inkscape.org/) -->

<svg
   xmlns:dc="http://purl.org/dc/elements/1.1/"
   xmlns:cc="http://creativecommons.org/ns#"
   xmlns:rdf="http://www.w3.org/1999/02/22-rdf-syntax-ns#"
   xmlns:svg="http://www.w3.org/2000/svg"
   xmlns="http://www.w3.org/2000/svg"
   xmlns:sodipodi="http://sodipodi.sourceforge.net/DTD/sodipodi-0.dtd"
   xmlns:inkscape="http://www.inkscape.org/namespaces/inkscape"
   version="1.1"
   id="svg2"
   xml:space="preserve"
   width="374.03186"
   height="118.6901"
   viewBox="0 0 374.03186 118.6901"
   sodipodi:docname="Fig3.svg"
   inkscape:version="0.92.2 (5c3e80d, 2017-08-06)"><metadata
     id="metadata8"><rdf:RDF><cc:Work
         rdf:about=""><dc:format>image/svg+xml</dc:format><dc:type
           rdf:resource="http://purl.org/dc/dcmitype/StillImage" /><dc:title></dc:title></cc:Work></rdf:RDF></metadata><defs
     id="defs6"><clipPath
       clipPathUnits="userSpaceOnUse"
       id="clipPath22"><path
         d="m 25.148,39.59 h 121.484 v 60.742 H 25.148 Z"
         id="path20"
         inkscape:connector-curvature="0" /></clipPath><clipPath
       clipPathUnits="userSpaceOnUse"
       id="clipPath32"><path
         d="m 25.148,77 h 121.484 v 1 H 25.148 Z"
         id="path30"
         inkscape:connector-curvature="0" /></clipPath><clipPath
       clipPathUnits="userSpaceOnUse"
       id="clipPath42"><path
         d="M 25.148,39.59 H 144 V 89 H 25.148 Z"
         id="path40"
         inkscape:connector-curvature="0" /></clipPath><clipPath
       clipPathUnits="userSpaceOnUse"
       id="clipPath52"><path
         d="M 25.148,44 H 144 V 98 H 25.148 Z"
         id="path50"
         inkscape:connector-curvature="0" /></clipPath><clipPath
       clipPathUnits="userSpaceOnUse"
       id="clipPath62"><path
         d="m 161.035,39.59 h 121.484 v 60.742 H 161.035 Z"
         id="path60"
         inkscape:connector-curvature="0" /></clipPath><clipPath
       clipPathUnits="userSpaceOnUse"
       id="clipPath72"><path
         d="m 161.035,77 h 121.484 v 1 H 161.035 Z"
         id="path70"
         inkscape:connector-curvature="0" /></clipPath><clipPath
       clipPathUnits="userSpaceOnUse"
       id="clipPath82"><path
         d="M 161.035,39.59 H 280 V 91 H 161.035 Z"
         id="path80"
         inkscape:connector-curvature="0" /></clipPath><clipPath
       clipPathUnits="userSpaceOnUse"
       id="clipPath92"><path
         d="M 161.035,44 H 280 V 98 H 161.035 Z"
         id="path90"
         inkscape:connector-curvature="0" /></clipPath></defs><sodipodi:namedview
     pagecolor="#ffffff"
     bordercolor="#666666"
     borderopacity="1"
     objecttolerance="10"
     gridtolerance="10"
     guidetolerance="10"
     inkscape:pageopacity="0"
     inkscape:pageshadow="2"
     inkscape:window-width="1920"
     inkscape:window-height="986"
     id="namedview4"
     showgrid="false"
     fit-margin-top="0"
     fit-margin-left="0"
     fit-margin-right="0"
     fit-margin-bottom="0"
     inkscape:zoom="2"
     inkscape:cx="103.48102"
     inkscape:cy="67.835471"
     inkscape:window-x="-11"
     inkscape:window-y="-11"
     inkscape:window-maximized="1"
     inkscape:current-layer="g10" /><g
     id="g10"
     inkscape:groupmode="layer"
     inkscape:label="Fig3"
     transform="matrix(1.3333333,0,0,1.3333333,-6.4550776,-38.942707)"><g
       id="g16"><g
         id="g18"
         clip-path="url(#clipPath22)"><path
           d="m 25.148,39.59 h 121.484 v 60.742 H 25.148 Z"
           style="fill:#4d4d4d;fill-opacity:1;fill-rule:nonzero;stroke:#000000;stroke-width:1.06697798;stroke-linecap:round;stroke-linejoin:round;stroke-miterlimit:10;stroke-dasharray:none;stroke-opacity:1"
           id="path24"
           inkscape:connector-curvature="0" /></g></g><g
       id="g26"><g
         id="g28"
         clip-path="url(#clipPath32)"><path
           d="M 25.148,77.551 H 146.637"
           style="fill:none;stroke:#ffffff;stroke-width:0.213396;stroke-linecap:butt;stroke-linejoin:round;stroke-miterlimit:10;stroke-dasharray:none;stroke-opacity:0.69803898"
           id="path34"
           inkscape:connector-curvature="0" /></g></g><g
       id="g36"><g
         id="g38"
         clip-path="url(#clipPath42)"><path
           d="m 19.414,0 0.02,70.391 0.714,12.464 0.715,5.168 0.715,-1.546 0.715,-3.582 0.715,-2.79 0.711,-2.132 0.715,-1.621 0.714,-1.106 0.715,-0.558 0.715,-0.083 0.715,0.254 0.715,0.426 0.715,0.531 0.715,0.645 0.714,0.723 0.715,0.718 0.715,0.602 0.715,0.43 0.715,0.257 0.715,0.075 0.714,-0.157 0.715,-0.484 0.711,-0.844 0.715,-0.824 0.715,-0.32 0.715,0.187 0.715,0.621 0.714,1.016 0.715,1.152 0.715,0.852 0.715,0.488 0.715,0.082 0.715,-0.363 0.714,-0.758 0.715,-1.078 0.715,-1.395 0.715,-1.746 0.715,-2.113 0.715,-1.934 0.715,-0.453 0.71,1.192 0.715,2.804 0.715,4.411 0.715,5.113 0.715,3.082 0.715,0.516 0.715,-2.11 0.714,-4.769 0.715,-6.504 0.715,-4.832 0.715,-2.407 0.715,-0.027 0.715,2.313 0.714,4.07 0.715,3.312 0.715,1.836 0.715,0.344 0.711,-1.168 0.715,-2.414 0.715,-2.187 0.714,-1.469 0.715,-0.774 0.715,-0.109 0.715,0.504 0.715,0.863 0.715,1.129 0.715,1.391 0.714,1.644 0.715,1.797 0.715,1.074 0.715,-0.121 0.715,-1.332 0.715,-2.547 0.714,-3.601 0.715,-3.031 0.711,-1.454 0.715,0.102 0.715,1.629 0.715,3.043 0.715,3.144 0.714,2.235 0.715,1.297 0.715,0.339 0.715,-0.597 0.715,-1.047 0.715,-1.055 0.714,-1.043 0.715,-1.051 0.715,-1.054 0.715,-0.797 0.715,-0.223 0.715,0.371 0.711,0.973 0.714,1.559 0.715,1.336 0.715,0.058 0.715,-1.297 0.715,-2.652 0.715,-3.988 0.715,-3.973 0.714,-1.805 0.715,0.559 0.715,2.922 0.715,5.269 0.715,6.035 0.715,3.754 0.714,1.133 0.715,-1.48 0.715,-4.078 0.715,-5.387 0.711,-3.672 0.715,-1.531 0.715,0.601 0.714,2.735 0.715,4.015 0.715,2.856 0.715,1.269 0.715,-0.312 0.715,-1.895 0.715,-2.965 0.714,-2.222 0.715,-1.078 0.715,0.058 0.715,1.196 0.715,2.043 0.715,1.675 0.714,0.977 0.711,0.289 0.715,-0.387 0.715,-0.933 0.715,-0.903 0.715,-0.676 0.715,-0.453 0.714,-0.25 0.715,-0.074 0.715,0.02 0.715,0.082 0.715,0.148 0.715,0.219 0.714,0.281 0.715,0.227 0.715,0.105 0.715,-0.019 0.715,-0.137 0.711,-0.246 0.715,-0.223 0.714,-0.109 0.715,0.008 0.715,0.132 0.715,0.258 0.715,0.156 0.715,-0.128 0.715,-0.43 0.714,-0.727 0.715,-1.007 0.715,-0.993 0.715,-0.73 0.715,-0.5 0.715,-0.301 0.714,-0.129 0.715,-0.097 0.715,-0.208 0.711,-0.312 0.715,-0.41 0.715,-0.492 0.715,-0.289 0.714,0.293 0.715,0.898 0.715,1.504 0.715,2.109 0.715,2.828 0.715,3.754 0.715,4.719"
           style="fill:none;stroke:#8bf7ab;stroke-width:0.64018703;stroke-linecap:butt;stroke-linejoin:round;stroke-miterlimit:10;stroke-dasharray:none;stroke-opacity:1"
           id="path44"
           inkscape:connector-curvature="0" /></g></g><g
       id="g46"><g
         id="g48"
         clip-path="url(#clipPath52)"><path
           d="m 18.719,78.176 0.715,0.117 0.714,-0.133 0.715,-0.39 0.715,-0.34 0.715,-0.215 0.715,-0.051 0.711,0.285 0.715,0.528 0.714,0.281 0.715,-0.086 0.715,-0.371 0.715,-0.332 0.715,-0.207 0.715,-0.074 0.715,0.058 0.714,0.145 0.715,0.047 0.715,-0.094 0.715,-0.199 0.715,-0.153 0.715,-0.062 0.714,0.035 0.715,0.137 0.711,0.222 0.715,0.246 0.715,0.235 0.715,0.133 0.715,0.003 0.714,-0.089 0.715,-0.043 0.715,0.031 0.715,0.101 0.715,0.157 0.715,0.199 0.714,0.215 0.715,0.226 0.715,0.231 0.715,0.215 0.715,0.183 0.715,0.067 0.715,-0.059 0.71,-0.16 0.715,-0.164 0.715,-0.141 0.715,-0.121 0.715,-0.09 0.715,-0.058 h 0.715 l 0.714,0.066 0.715,0.141 0.715,0.242 0.715,0.289 0.715,0.074 0.715,-0.211 0.714,-0.5 0.715,-0.82 0.715,-1.051 0.715,-0.883 0.711,-0.609 0.715,-0.336 0.715,-0.094 0.714,0.133 0.715,0.305 0.715,0.234 0.715,0.102 0.715,-0.09 0.715,-0.289 0.715,-0.496 0.714,-0.711 0.715,-0.91 0.715,-1.043 0.715,-1.149 0.715,-1.14 0.715,-0.637 0.714,-0.012 0.715,0.613 0.711,1.243 0.715,1.773 0.715,1.938 0.715,2.011 0.715,1.864 0.714,0.8 1.43,-0.429 0.715,0.039 0.715,0.332 0.715,0.754 0.714,1.207 0.715,1.507 0.715,1.27 0.715,0.793 0.715,-0.117 0.715,-1.125 0.711,-1.934 0.714,-1.89 0.715,-1.516 0.715,-0.727 0.715,0.176 0.715,0.871 0.715,0.715 0.715,0.344 0.714,-0.078 0.715,-0.5 0.715,-0.926 0.715,-1.324 0.715,-1.731 0.715,-1.965 0.714,-1.453 0.715,-0.801 0.715,-0.371 0.715,0.008 0.711,0.231 0.715,-0.133 0.715,-0.52 0.714,-0.394 0.715,-0.149 0.715,0.071 0.715,0.172 0.715,0.25 0.715,0.253 0.715,-0.011 0.714,-0.449 0.715,-1.325 0.715,-2.324 0.715,-3.203 0.715,-3.582 0.715,-3.758 0.714,-3.656 0.711,-3.477 0.715,-2.91 0.715,-0.828 0.715,1.602 0.715,4.336 0.715,8.429 0.714,11.371 0.715,9.004 0.715,5.5 0.715,2.656 0.715,2.047 0.715,1.852 0.714,1.078 0.715,0.164 0.715,-0.809 0.715,-2.066 0.715,-3.059 0.711,-2.695 0.715,-1.969 0.714,-1.05 0.715,0.621 0.715,2.472 0.715,3.739 0.715,2.824 0.715,1.664 0.715,1.566 0.714,1.711 0.715,1.426 0.715,-0.562 0.715,-2.555 0.715,-3.004 0.715,-3.078 0.714,-3.035 0.715,-2.473 0.715,-1.762 0.711,-1.129 0.715,-0.89 0.715,-0.625 0.715,0.113 0.714,0.965 0.715,1.73 0.715,2.176 0.715,2.453 0.715,2.434 0.715,2.328 0.715,2.027"
           style="fill:none;stroke:#f5a6ff;stroke-width:0.64018703;stroke-linecap:butt;stroke-linejoin:round;stroke-miterlimit:10;stroke-dasharray:none;stroke-opacity:1"
           id="path54"
           inkscape:connector-curvature="0" /></g></g><g
       id="g56"><g
         id="g58"
         clip-path="url(#clipPath62)"><path
           d="m 161.035,39.59 h 121.484 v 60.742 H 161.035 Z"
           style="fill:#4d4d4d;fill-opacity:1;fill-rule:nonzero;stroke:#000000;stroke-width:1.06697798;stroke-linecap:round;stroke-linejoin:round;stroke-miterlimit:10;stroke-dasharray:none;stroke-opacity:1"
           id="path64"
           inkscape:connector-curvature="0" /></g></g><g
       id="g66"><g
         id="g68"
         clip-path="url(#clipPath72)"><path
           d="M 161.035,77.551 H 282.52"
           style="fill:none;stroke:#ffffff;stroke-width:0.213396;stroke-linecap:butt;stroke-linejoin:round;stroke-miterlimit:10;stroke-dasharray:none;stroke-opacity:0.69803898"
           id="path74"
           inkscape:connector-curvature="0" /></g></g><g
       id="g76"><g
         id="g78"
         clip-path="url(#clipPath82)"><path
           d="m 155.301,0 0.015,68.949 0.715,15.016 0.715,5.961 0.715,-2.235 0.715,-4.562 0.715,-3.34 0.714,-2.301 0.715,-1.437 0.715,-0.602 0.715,-0.043 0.715,0.184 0.715,0.234 0.715,0.094 0.714,-0.117 0.715,-0.008 0.715,0.359 0.715,0.641 0.711,0.785 0.715,0.856 0.715,0.781 0.714,0.527 0.715,0.203 0.715,-0.222 0.715,-0.688 0.715,-0.75 0.715,-0.312 0.714,0.113 0.715,0.445 0.715,0.723 0.715,0.824 0.715,0.613 0.715,0.344 0.715,0.004 0.714,-0.391 0.715,-0.722 0.711,-0.969 0.715,-1.215 0.715,-1.496 0.715,-1.808 0.715,-1.637 0.714,-0.313 0.715,1.149 0.715,2.578 0.715,3.996 0.715,4.594 0.715,2.679 0.714,0.266 0.715,-2.227 0.715,-4.761 0.715,-6.379 0.715,-4.653 0.715,-2.195 0.711,0.211 0.714,2.563 0.715,4.355 0.715,3.609 0.715,2.141 0.715,0.625 0.715,-0.918 0.714,-2.211 0.715,-2.101 0.715,-1.547 0.715,-1.039 0.715,-0.586 0.715,-0.125 0.715,0.508 0.714,1.214 0.715,1.899 0.715,2.555 0.715,3.023 0.711,2.035 0.715,0.309 0.715,-1.438 0.714,-3.187 0.715,-4.742 0.715,-4.235 0.715,-2.437 0.715,-0.633 0.715,1.152 0.714,2.832 0.715,3.141 0.715,2.414 0.715,1.648 0.715,0.883 0.715,0.125 0.715,-0.375 0.714,-0.648 0.711,-0.903 0.715,-1.164 0.715,-1.398 0.715,-1.129 0.715,-0.316 0.715,0.496 0.714,1.304 0.715,2.082 0.715,1.879 0.715,0.371 0.715,-1.234 0.715,-2.859 0.714,-4.473 0.715,-4.52 0.715,-2.093 0.715,0.554 0.715,3.196 0.715,5.812 0.711,6.781 0.714,4.547 0.715,1.953 0.715,-0.648 0.715,-3.246 0.715,-4.719 0.715,-3.515 0.714,-1.934 0.715,-0.348 0.715,1.231 0.715,2.254 0.715,1.687 0.715,0.836 0.715,-0.016 0.714,-0.859 0.715,-1.441 0.715,-1.078 0.711,-0.52 0.715,0.039 0.715,0.586 0.715,0.961 0.714,0.641 0.715,0.121 0.715,-0.399 0.715,-0.926 0.715,-1.339 0.715,-1.239 0.714,-0.957 0.715,-0.648 0.715,-0.352 0.715,-0.086 0.715,-0.007 0.715,0.003 0.715,0.012 0.71,0.031 0.715,0.043 0.715,-0.011 0.715,-0.094 0.715,-0.191 0.715,-0.286 0.715,-0.375 0.714,-0.343 0.715,-0.239 0.715,-0.121 0.715,0.004 0.715,0.121 0.715,0.004 0.714,-0.297 0.715,-0.605 0.715,-0.91 0.715,-1.207 0.715,-1.157 0.711,-0.839 0.715,-0.543 0.714,-0.27 0.715,-0.016 0.715,0.098 0.715,0.059 0.715,0.015 0.715,-0.027 0.714,-0.066 0.715,0.097 0.715,0.52 0.715,0.953 0.715,1.39 0.715,1.836 0.715,2.481 0.714,3.406 0.715,4.336"
           style="fill:none;stroke:#8bf7ab;stroke-width:0.64018703;stroke-linecap:butt;stroke-linejoin:round;stroke-miterlimit:10;stroke-dasharray:none;stroke-opacity:1"
           id="path84"
           inkscape:connector-curvature="0" /></g></g><g
       id="g86"><g
         id="g88"
         clip-path="url(#clipPath92)"><path
           d="m 154.605,78.176 0.711,0.117 0.715,-0.133 0.715,-0.39 0.715,-0.34 0.715,-0.215 0.715,-0.051 0.714,0.285 0.715,0.528 0.715,0.281 0.715,-0.086 0.715,-0.371 0.715,-0.332 0.715,-0.207 0.714,-0.074 0.715,0.058 0.715,0.145 0.715,0.047 0.711,-0.094 0.715,-0.199 0.715,-0.153 0.714,-0.062 0.715,0.035 0.715,0.137 0.715,0.222 0.715,0.246 0.715,0.235 0.714,0.133 0.715,0.003 0.715,-0.089 0.715,-0.043 0.715,0.031 0.715,0.101 0.715,0.157 0.714,0.199 0.715,0.215 0.711,0.226 0.715,0.231 0.715,0.215 0.715,0.183 0.715,0.067 0.714,-0.059 0.715,-0.16 0.715,-0.164 0.715,-0.141 0.715,-0.121 0.715,-0.09 0.714,-0.058 h 0.715 l 0.715,0.066 0.715,0.141 0.715,0.242 0.715,0.289 0.711,0.074 0.714,-0.211 0.715,-0.5 0.715,-0.82 0.715,-1.051 0.715,-0.883 0.715,-0.609 0.714,-0.336 0.715,-0.094 0.715,0.133 0.715,0.305 0.715,0.234 0.715,0.102 0.715,-0.09 0.714,-0.289 0.715,-0.496 0.715,-0.711 0.715,-0.91 0.711,-1.043 0.715,-1.149 0.715,-1.14 0.714,-0.637 0.715,-0.012 0.715,0.613 0.715,1.243 0.715,1.773 0.715,1.938 0.714,2.011 0.715,1.864 0.715,0.8 1.43,-0.429 0.715,0.039 0.715,0.332 0.714,0.754 0.711,1.207 0.715,1.507 0.715,1.27 0.715,0.793 0.715,-0.117 0.715,-1.125 0.714,-1.934 0.715,-1.89 0.715,-1.516 0.715,-0.727 0.715,0.176 0.715,0.871 0.714,0.715 0.715,0.344 0.715,-0.078 0.715,-0.5 0.715,-0.926 0.715,-1.324 0.711,-1.731 0.714,-1.965 0.715,-1.453 0.715,-0.801 0.715,-0.371 0.715,0.008 0.715,0.231 0.714,-0.133 0.715,-0.52 0.715,-0.394 0.715,-0.149 0.715,0.071 0.715,0.172 0.715,0.25 0.714,0.253 0.715,-0.011 0.715,-0.449 0.711,-1.325 0.715,-2.324 0.715,-3.203 0.715,-3.582 0.714,-3.758 0.715,-3.656 0.715,-3.477 0.715,-2.91 0.715,-0.828 0.715,1.602 0.714,4.336 0.715,8.429 0.715,11.371 0.715,9.004 0.715,5.5 0.715,2.656 0.715,2.047 0.71,1.852 0.715,1.078 0.715,0.164 0.715,-0.809 0.715,-2.066 0.715,-3.059 0.715,-2.695 0.714,-1.969 0.715,-1.05 0.715,0.621 0.715,2.472 0.715,3.739 0.715,2.824 0.714,1.664 0.715,1.566 0.715,1.711 0.715,1.426 0.715,-0.562 0.711,-2.555 0.715,-3.004 0.714,-3.078 0.715,-3.035 0.715,-2.473 0.715,-1.762 0.715,-1.129 0.715,-0.89 0.714,-0.625 0.715,0.113 0.715,0.965 0.715,1.73 0.715,2.176 0.715,2.453 0.715,2.434 0.714,2.328 0.715,2.027"
           style="fill:none;stroke:#f5a6ff;stroke-width:0.64018703;stroke-linecap:butt;stroke-linejoin:round;stroke-miterlimit:10;stroke-dasharray:none;stroke-opacity:1"
           id="path94"
           inkscape:connector-curvature="0" /></g></g><g
       id="g96"><text
         transform="translate(74.226563,34.457031)"
         style="font-variant:normal;font-weight:normal;font-size:7px;font-family:'Roboto Condensed';-inkscape-font-specification:RobotoCondensed-Regular;writing-mode:lr-tb;fill:#1a1a1a;fill-opacity:1;fill-rule:nonzero;stroke:none"
         id="text100"><tspan
           x="0 3.3599999 6.6360002 11.9 15.253 16.856001 20.132 139.19531 144.48032 147.83331 149.43631 152.71231"
           y="0"
           sodipodi:role="line"
           id="tspan98">FemalesMales</tspan></text>
<path
         d="m 32.297,103.07 v -2.738"
         style="fill:none;stroke:#4d4d4d;stroke-width:0.213396;stroke-linecap:butt;stroke-linejoin:round;stroke-miterlimit:10;stroke-dasharray:none;stroke-opacity:1"
         id="path102"
         inkscape:connector-curvature="0" /><path
         d="m 46.59,103.07 v -2.738"
         style="fill:none;stroke:#4d4d4d;stroke-width:0.213396;stroke-linecap:butt;stroke-linejoin:round;stroke-miterlimit:10;stroke-dasharray:none;stroke-opacity:1"
         id="path104"
         inkscape:connector-curvature="0" /><path
         d="m 60.879,103.07 v -2.738"
         style="fill:none;stroke:#4d4d4d;stroke-width:0.213396;stroke-linecap:butt;stroke-linejoin:round;stroke-miterlimit:10;stroke-dasharray:none;stroke-opacity:1"
         id="path106"
         inkscape:connector-curvature="0" /><path
         d="m 75.172,103.07 v -2.738"
         style="fill:none;stroke:#4d4d4d;stroke-width:0.213396;stroke-linecap:butt;stroke-linejoin:round;stroke-miterlimit:10;stroke-dasharray:none;stroke-opacity:1"
         id="path108"
         inkscape:connector-curvature="0" /><path
         d="m 89.465,103.07 v -2.738"
         style="fill:none;stroke:#4d4d4d;stroke-width:0.213396;stroke-linecap:butt;stroke-linejoin:round;stroke-miterlimit:10;stroke-dasharray:none;stroke-opacity:1"
         id="path110"
         inkscape:connector-curvature="0" /><path
         d="m 103.758,103.07 v -2.738"
         style="fill:none;stroke:#4d4d4d;stroke-width:0.213396;stroke-linecap:butt;stroke-linejoin:round;stroke-miterlimit:10;stroke-dasharray:none;stroke-opacity:1"
         id="path112"
         inkscape:connector-curvature="0" /><path
         d="m 118.051,103.07 v -2.738"
         style="fill:none;stroke:#4d4d4d;stroke-width:0.213396;stroke-linecap:butt;stroke-linejoin:round;stroke-miterlimit:10;stroke-dasharray:none;stroke-opacity:1"
         id="path114"
         inkscape:connector-curvature="0" /><path
         d="m 132.344,103.07 v -2.738"
         style="fill:none;stroke:#4d4d4d;stroke-width:0.213396;stroke-linecap:butt;stroke-linejoin:round;stroke-miterlimit:10;stroke-dasharray:none;stroke-opacity:1"
         id="path116"
         inkscape:connector-curvature="0" /><path
         d="m 146.637,103.07 v -2.738"
         style="fill:none;stroke:#4d4d4d;stroke-width:0.213396;stroke-linecap:butt;stroke-linejoin:round;stroke-miterlimit:10;stroke-dasharray:none;stroke-opacity:1"
         id="path118"
         inkscape:connector-curvature="0" /><text
         transform="translate(26.769531,109.24219)"
         style="font-variant:normal;font-weight:normal;font-size:5.5999999px;font-family:'Roboto Condensed';-inkscape-font-specification:RobotoCondensed-Regular;writing-mode:lr-tb;fill:#4d4d4d;fill-opacity:1;fill-rule:nonzero;stroke:none"
         id="text122"><tspan
           x="0 2.7607999 5.5215998 8.2824001 16.5536 17.528 20.288799 28.559999 31.320801 34.0816 36.8424 45.113602 46.088001 48.848801 59.3992 60.3736 63.134399 73.684799 74.659203 77.419998 87.964798 88.939201 91.699997 99.976799 102.7376 105.4984 108.2592 116.5304 117.5048 120.2656"
           y="0"
           sodipodi:role="line"
           id="tspan120">1860'801900'20'40'60'802000'20</tspan></text>
<path
         d="m 168.18,103.07 v -2.738"
         style="fill:none;stroke:#4d4d4d;stroke-width:0.213396;stroke-linecap:butt;stroke-linejoin:round;stroke-miterlimit:10;stroke-dasharray:none;stroke-opacity:1"
         id="path124"
         inkscape:connector-curvature="0" /><path
         d="m 182.473,103.07 v -2.738"
         style="fill:none;stroke:#4d4d4d;stroke-width:0.213396;stroke-linecap:butt;stroke-linejoin:round;stroke-miterlimit:10;stroke-dasharray:none;stroke-opacity:1"
         id="path126"
         inkscape:connector-curvature="0" /><path
         d="m 196.766,103.07 v -2.738"
         style="fill:none;stroke:#4d4d4d;stroke-width:0.213396;stroke-linecap:butt;stroke-linejoin:round;stroke-miterlimit:10;stroke-dasharray:none;stroke-opacity:1"
         id="path128"
         inkscape:connector-curvature="0" /><path
         d="m 211.059,103.07 v -2.738"
         style="fill:none;stroke:#4d4d4d;stroke-width:0.213396;stroke-linecap:butt;stroke-linejoin:round;stroke-miterlimit:10;stroke-dasharray:none;stroke-opacity:1"
         id="path130"
         inkscape:connector-curvature="0" /><path
         d="m 225.352,103.07 v -2.738"
         style="fill:none;stroke:#4d4d4d;stroke-width:0.213396;stroke-linecap:butt;stroke-linejoin:round;stroke-miterlimit:10;stroke-dasharray:none;stroke-opacity:1"
         id="path132"
         inkscape:connector-curvature="0" /><path
         d="m 239.645,103.07 v -2.738"
         style="fill:none;stroke:#4d4d4d;stroke-width:0.213396;stroke-linecap:butt;stroke-linejoin:round;stroke-miterlimit:10;stroke-dasharray:none;stroke-opacity:1"
         id="path134"
         inkscape:connector-curvature="0" /><path
         d="m 253.938,103.07 v -2.738"
         style="fill:none;stroke:#4d4d4d;stroke-width:0.213396;stroke-linecap:butt;stroke-linejoin:round;stroke-miterlimit:10;stroke-dasharray:none;stroke-opacity:1"
         id="path136"
         inkscape:connector-curvature="0" /><path
         d="m 268.227,103.07 v -2.738"
         style="fill:none;stroke:#4d4d4d;stroke-width:0.213396;stroke-linecap:butt;stroke-linejoin:round;stroke-miterlimit:10;stroke-dasharray:none;stroke-opacity:1"
         id="path138"
         inkscape:connector-curvature="0" /><path
         d="m 282.52,103.07 v -2.738"
         style="fill:none;stroke:#4d4d4d;stroke-width:0.213396;stroke-linecap:butt;stroke-linejoin:round;stroke-miterlimit:10;stroke-dasharray:none;stroke-opacity:1"
         id="path140"
         inkscape:connector-curvature="0" /><text
         transform="translate(162.65234,109.24219)"
         style="font-variant:normal;font-weight:normal;font-size:5.5999999px;font-family:'Roboto Condensed';-inkscape-font-specification:RobotoCondensed-Regular;writing-mode:lr-tb;fill:#4d4d4d;fill-opacity:1;fill-rule:nonzero;stroke:none"
         id="text162"><tspan
           x="0 2.7607999 5.5215998 8.2824001 16.5536 17.528 20.288799 28.565599 31.326401 34.0872 36.848 45.119202 46.093601 48.854401 59.3992 60.3736 63.134399 73.690399 74.664803 77.425598 87.970398 88.944801 91.705597 99.976799 102.7376 105.4984 108.2592 116.5304 117.5048 120.2656"
           y="0"
           sodipodi:role="line"
           id="tspan142">1860'801900'20'40'60'802000'20</tspan><tspan
           x="-146.58594 -145.19714"
           y="-6.9218745"
           sodipodi:role="line"
           id="tspan144">-6</tspan><tspan
           x="-146.58594 -145.19714"
           y="-14.511717"
           sodipodi:role="line"
           id="tspan146">-4</tspan><tspan
           x="-146.58594 -145.19714"
           y="-22.105469"
           sodipodi:role="line"
           id="tspan148">-2</tspan><tspan
           x="-145.19922"
           y="-29.699219"
           id="tspan150">0</tspan><tspan
           x="-145.19922"
           y="-37.292969"
           id="tspan152">2</tspan><tspan
           x="-145.19922"
           y="-44.882812"
           id="tspan154">4</tspan><tspan
           x="-145.19531"
           y="-52.476562"
           id="tspan156">6</tspan><tspan
           x="-145.19922"
           y="-60.070316"
           id="tspan158">8</tspan><tspan
           x="-147.96094 -145.20013"
           y="-67.664062"
           sodipodi:role="line"
           id="tspan160">10</tspan></text>
<path
         d="m 22.41,100.332 h 2.738"
         style="fill:none;stroke:#4d4d4d;stroke-width:0.213396;stroke-linecap:butt;stroke-linejoin:round;stroke-miterlimit:10;stroke-dasharray:none;stroke-opacity:1"
         id="path164"
         inkscape:connector-curvature="0" /><path
         d="m 22.41,92.738 h 2.738"
         style="fill:none;stroke:#4d4d4d;stroke-width:0.213396;stroke-linecap:butt;stroke-linejoin:round;stroke-miterlimit:10;stroke-dasharray:none;stroke-opacity:1"
         id="path166"
         inkscape:connector-curvature="0" /><path
         d="m 22.41,85.145 h 2.738"
         style="fill:none;stroke:#4d4d4d;stroke-width:0.213396;stroke-linecap:butt;stroke-linejoin:round;stroke-miterlimit:10;stroke-dasharray:none;stroke-opacity:1"
         id="path168"
         inkscape:connector-curvature="0" /><path
         d="m 22.41,77.551 h 2.738"
         style="fill:none;stroke:#4d4d4d;stroke-width:0.213396;stroke-linecap:butt;stroke-linejoin:round;stroke-miterlimit:10;stroke-dasharray:none;stroke-opacity:1"
         id="path170"
         inkscape:connector-curvature="0" /><path
         d="m 22.41,69.961 h 2.738"
         style="fill:none;stroke:#4d4d4d;stroke-width:0.213396;stroke-linecap:butt;stroke-linejoin:round;stroke-miterlimit:10;stroke-dasharray:none;stroke-opacity:1"
         id="path172"
         inkscape:connector-curvature="0" /><path
         d="m 22.41,62.367 h 2.738"
         style="fill:none;stroke:#4d4d4d;stroke-width:0.213396;stroke-linecap:butt;stroke-linejoin:round;stroke-miterlimit:10;stroke-dasharray:none;stroke-opacity:1"
         id="path174"
         inkscape:connector-curvature="0" /><path
         d="m 22.41,54.773 h 2.738"
         style="fill:none;stroke:#4d4d4d;stroke-width:0.213396;stroke-linecap:butt;stroke-linejoin:round;stroke-miterlimit:10;stroke-dasharray:none;stroke-opacity:1"
         id="path176"
         inkscape:connector-curvature="0" /><path
         d="m 22.41,47.18 h 2.738"
         style="fill:none;stroke:#4d4d4d;stroke-width:0.213396;stroke-linecap:butt;stroke-linejoin:round;stroke-miterlimit:10;stroke-dasharray:none;stroke-opacity:1"
         id="path178"
         inkscape:connector-curvature="0" /><path
         d="m 22.41,39.59 h 2.738"
         style="fill:none;stroke:#4d4d4d;stroke-width:0.213396;stroke-linecap:butt;stroke-linejoin:round;stroke-miterlimit:10;stroke-dasharray:none;stroke-opacity:1"
         id="path180"
         inkscape:connector-curvature="0" /><text
         transform="translate(147.62109,118.15625)"
         style="font-variant:normal;font-weight:normal;font-size:7px;font-family:'Roboto Condensed';-inkscape-font-specification:RobotoCondensed-Regular;writing-mode:lr-tb;fill:#000000;fill-opacity:1;fill-rule:nonzero;stroke:none"
         id="text184"><tspan
           x="0 3.668 6.9439998 10.297"
           y="0"
           sodipodi:role="line"
           id="tspan182">Year</tspan></text>
<text
         transform="rotate(-90,53.873047,43.416016)"
         style="font-variant:normal;font-weight:normal;font-size:7px;font-family:'Roboto Condensed';-inkscape-font-specification:RobotoCondensed-Regular;writing-mode:lr-tb;fill:#000000;fill-opacity:1;fill-rule:nonzero;stroke:none"
         id="text188"><tspan
           x="0 4.0320001 7.0209999 10.297 12.425 15.778 19.222 22.497999 24.101 27.327999 30.702 34.055 37.436001 40.880001 44.155998 45.758999 47.950001 52.374001"
           y="0"
           sodipodi:role="line"
           id="tspan186">Average change (%)</tspan></text>
</g><text
       xml:space="preserve"
       style="font-style:normal;font-variant:normal;font-weight:normal;font-stretch:normal;font-size:7px;line-height:1.25;font-family:'Roboto Condensed';-inkscape-font-specification:'Roboto Condensed, ';text-align:center;letter-spacing:0px;word-spacing:0px;text-anchor:middle;fill:#8bf7ab;fill-opacity:1;stroke:none;stroke-width:0.75"
       x="73.264671"
       y="61.563595"
       id="text192"><tspan
         sodipodi:role="line"
         id="tspan190"
         x="73.264671"
         y="61.563595"
         style="font-size:7px;fill:#8bf7ab;fill-opacity:1;stroke-width:0.75">Mortality, ρ(t)</tspan></text>
<text
       xml:space="preserve"
       style="font-style:normal;font-variant:normal;font-weight:normal;font-stretch:normal;font-size:7px;line-height:1.25;font-family:'Roboto Condensed';-inkscape-font-specification:'Roboto Condensed, ';text-align:center;letter-spacing:0px;word-spacing:0px;text-anchor:middle;fill:#f5a6ff;fill-opacity:1;stroke:none;stroke-width:0.75"
       x="89.774559"
       y="48.667332"
       id="text192-4"><tspan
         sodipodi:role="line"
         id="tspan190-8"
         x="89.774559"
         y="48.667332"
         style="font-size:7px;fill:#f5a6ff;fill-opacity:1;stroke-width:0.75">Interest, δ(x,t)</tspan></text>
<circle
       id="path216"
       style="fill:#f5a6ff;fill-opacity:1;stroke:none;stroke-width:0.19140624"
       cx="97.787109"
       cy="42.638668"
       r="0.28710935" /><path
       style="fill:none;stroke:#8bf7ab;stroke-width:0.30000001;stroke-linecap:butt;stroke-linejoin:miter;stroke-miterlimit:4;stroke-dasharray:none;stroke-opacity:1"
       d="m 82.734373,57.339842 c 1.875,0 1.875,0 1.875,0"
       id="path1037"
       inkscape:connector-curvature="0" /></g></svg>