<?xml version="1.0" encoding="UTF-8" standalone="no"?>
<svg
   xmlns:dc="http://purl.org/dc/elements/1.1/"
   xmlns:cc="http://creativecommons.org/ns#"
   xmlns:rdf="http://www.w3.org/1999/02/22-rdf-syntax-ns#"
   xmlns:svg="http://www.w3.org/2000/svg"
   xmlns="http://www.w3.org/2000/svg"
   xmlns:sodipodi="http://sodipodi.sourceforge.net/DTD/sodipodi-0.dtd"
   xmlns:inkscape="http://www.inkscape.org/namespaces/inkscape"
   inkscape:version="1.0 (4035a4fb49, 2020-05-01)"
   sodipodi:docname="StrucDescomposition.svg"
   viewBox="0 0 374.13385 147.10876"
   height="147.10876"
   width="374.13385"
   xml:space="preserve"
   id="svg10"
   version="1.1"><metadata
     id="metadata16"><rdf:RDF><cc:Work
         rdf:about=""><dc:format>image/svg+xml</dc:format><dc:type
           rdf:resource="http://purl.org/dc/dcmitype/StillImage" /><dc:title></dc:title></cc:Work></rdf:RDF></metadata><defs
     id="defs14"><clipPath
       id="clipPath30"
       clipPathUnits="userSpaceOnUse"><path
         id="path28"
         d="m 23.773,39.418 h 122.172 v 61.086 H 23.773 Z" /></clipPath><clipPath
       id="clipPath136"
       clipPathUnits="userSpaceOnUse"><path
         id="path134"
         d="m 24,69 h 4 v 31.504 h -4 z" /></clipPath><clipPath
       id="clipPath146"
       clipPathUnits="userSpaceOnUse"><path
         id="path144"
         d="m 27,69 h 3 v 31.504 h -3 z" /></clipPath><clipPath
       id="clipPath156"
       clipPathUnits="userSpaceOnUse"><path
         id="path154"
         d="m 29,69 h 4 v 31.504 h -4 z" /></clipPath><clipPath
       id="clipPath166"
       clipPathUnits="userSpaceOnUse"><path
         id="path164"
         d="m 32,69 h 3 v 31.504 h -3 z" /></clipPath><clipPath
       id="clipPath220"
       clipPathUnits="userSpaceOnUse"><path
         id="path218"
         d="m 86,39.418 h 3 V 67 h -3 z" /></clipPath><clipPath
       id="clipPath230"
       clipPathUnits="userSpaceOnUse"><path
         id="path228"
         d="m 88,39.418 h 3 V 67 h -3 z" /></clipPath><clipPath
       id="clipPath240"
       clipPathUnits="userSpaceOnUse"><path
         id="path238"
         d="m 90,39.418 h 4 V 67 h -4 z" /></clipPath><clipPath
       id="clipPath250"
       clipPathUnits="userSpaceOnUse"><path
         id="path248"
         d="m 93,39.418 h 3 V 66 h -3 z" /></clipPath><clipPath
       id="clipPath300"
       clipPathUnits="userSpaceOnUse"><path
         id="path298"
         d="M 160.348,39.418 H 282.52 v 61.086 H 160.348 Z" /></clipPath><clipPath
       id="clipPath406"
       clipPathUnits="userSpaceOnUse"><path
         id="path404"
         d="m 161,69 h 4 v 31.504 h -4 z" /></clipPath><clipPath
       id="clipPath416"
       clipPathUnits="userSpaceOnUse"><path
         id="path414"
         d="m 164,69 h 3 v 31.504 h -3 z" /></clipPath><clipPath
       id="clipPath426"
       clipPathUnits="userSpaceOnUse"><path
         id="path424"
         d="m 166,69 h 3 v 31.504 h -3 z" /></clipPath><clipPath
       id="clipPath436"
       clipPathUnits="userSpaceOnUse"><path
         id="path434"
         d="m 168,69 h 4 v 31.504 h -4 z" /></clipPath><clipPath
       id="clipPath490"
       clipPathUnits="userSpaceOnUse"><path
         id="path488"
         d="m 222,39.418 h 4 V 64 h -4 z" /></clipPath><clipPath
       id="clipPath500"
       clipPathUnits="userSpaceOnUse"><path
         id="path498"
         d="m 225,39.418 h 3 V 64 h -3 z" /></clipPath><clipPath
       id="clipPath510"
       clipPathUnits="userSpaceOnUse"><path
         id="path508"
         d="m 227,39.418 h 3 V 63 h -3 z" /></clipPath><clipPath
       id="clipPath520"
       clipPathUnits="userSpaceOnUse"><path
         id="path518"
         d="m 229,39.418 h 4 V 62 h -4 z" /></clipPath></defs><sodipodi:namedview
     inkscape:current-layer="g18"
     inkscape:window-maximized="1"
     inkscape:window-y="-8"
     inkscape:window-x="1912"
     inkscape:cy="-27.79349"
     inkscape:cx="231.94845"
     inkscape:zoom="1.5228576"
     fit-margin-bottom="0"
     fit-margin-right="0"
     fit-margin-left="0"
     fit-margin-top="0"
     showgrid="false"
     id="namedview12"
     inkscape:window-height="1017"
     inkscape:window-width="1920"
     inkscape:pageshadow="2"
     inkscape:pageopacity="0"
     guidetolerance="10"
     gridtolerance="10"
     objecttolerance="10"
     borderopacity="1"
     bordercolor="#666666"
     pagecolor="#ffffff" /><g
     transform="matrix(1.3333333,0,0,1.3333333,-6.4550776,-38.71354)"
     inkscape:label="StrucDescomposition"
     inkscape:groupmode="layer"
     id="g18"><g
       id="g24"><g
         clip-path="url(#clipPath30)"
         id="g26"><path
           id="path32"
           style="fill:#4d4d4d;fill-opacity:1;fill-rule:nonzero;stroke:#000000;stroke-width:1.06698;stroke-linecap:round;stroke-linejoin:round;stroke-miterlimit:10;stroke-dasharray:none;stroke-opacity:1"
           d="m 23.773,39.418 h 122.172 v 61.086 H 23.773 Z" /><path
           id="path34"
           style="fill:#defc65;fill-opacity:1;fill-rule:nonzero;stroke:none"
           d="m 24.996,69.133 h 2.445 v 0.828 h -2.445 z" /><path
           id="path36"
           style="fill:#defc65;fill-opacity:1;fill-rule:nonzero;stroke:none"
           d="m 27.441,69.184 h 2.445 v 0.777 h -2.445 z" /><path
           id="path38"
           style="fill:#defc65;fill-opacity:1;fill-rule:nonzero;stroke:none"
           d="m 29.883,68.992 h 2.445 v 0.969 h -2.445 z" /><path
           id="path40"
           style="fill:#defc65;fill-opacity:1;fill-rule:nonzero;stroke:none"
           d="m 32.328,68.637 h 2.445 v 1.324 h -2.445 z" /><path
           id="path42"
           style="fill:#defc65;fill-opacity:1;fill-rule:nonzero;stroke:none"
           d="m 34.77,68.313 h 2.445 v 1.648 H 34.77 Z" /><path
           id="path44"
           style="fill:#defc65;fill-opacity:1;fill-rule:nonzero;stroke:none"
           d="m 37.215,68.109 h 2.445 v 1.852 h -2.445 z" /><path
           id="path46"
           style="fill:#defc65;fill-opacity:1;fill-rule:nonzero;stroke:none"
           d="m 39.656,67.992 h 2.445 v 1.969 h -2.445 z" /><path
           id="path48"
           style="fill:#defc65;fill-opacity:1;fill-rule:nonzero;stroke:none"
           d="m 42.102,67.969 h 2.445 v 1.992 h -2.445 z" /><path
           id="path50"
           style="fill:#defc65;fill-opacity:1;fill-rule:nonzero;stroke:none"
           d="m 44.543,68.047 h 2.445 v 1.914 h -2.445 z" /><path
           id="path52"
           style="fill:#defc65;fill-opacity:1;fill-rule:nonzero;stroke:none"
           d="m 46.988,68.156 h 2.445 v 1.805 h -2.445 z" /><path
           id="path54"
           style="fill:#defc65;fill-opacity:1;fill-rule:nonzero;stroke:none"
           d="m 49.43,68.215 h 2.445 v 1.746 H 49.43 Z" /><path
           id="path56"
           style="fill:#defc65;fill-opacity:1;fill-rule:nonzero;stroke:none"
           d="m 51.875,68.207 h 2.445 v 1.754 h -2.445 z" /><path
           id="path58"
           style="fill:#defc65;fill-opacity:1;fill-rule:nonzero;stroke:none"
           d="m 54.316,68.137 h 2.445 v 1.824 h -2.445 z" /><path
           id="path60"
           style="fill:#defc65;fill-opacity:1;fill-rule:nonzero;stroke:none"
           d="m 56.762,68.008 h 2.445 v 1.953 h -2.445 z" /><path
           id="path62"
           style="fill:#defc65;fill-opacity:1;fill-rule:nonzero;stroke:none"
           d="m 59.203,67.859 h 2.445 v 2.102 h -2.445 z" /><path
           id="path64"
           style="fill:#defc65;fill-opacity:1;fill-rule:nonzero;stroke:none"
           d="m 61.648,67.762 h 2.445 v 2.199 h -2.445 z" /><path
           id="path66"
           style="fill:#defc65;fill-opacity:1;fill-rule:nonzero;stroke:none"
           d="m 64.09,67.734 h 2.445 v 2.227 H 64.09 Z" /><path
           id="path68"
           style="fill:#defc65;fill-opacity:1;fill-rule:nonzero;stroke:none"
           d="m 66.535,67.777 h 2.445 v 2.184 h -2.445 z" /><path
           id="path70"
           style="fill:#defc65;fill-opacity:1;fill-rule:nonzero;stroke:none"
           d="m 68.977,67.875 h 2.445 v 2.086 h -2.445 z" /><path
           id="path72"
           style="fill:#defc65;fill-opacity:1;fill-rule:nonzero;stroke:none"
           d="m 71.422,67.988 h 2.445 v 1.973 h -2.445 z" /><path
           id="path74"
           style="fill:#defc65;fill-opacity:1;fill-rule:nonzero;stroke:none"
           d="m 73.867,68.027 h 2.445 v 1.934 h -2.445 z" /><path
           id="path76"
           style="fill:#defc65;fill-opacity:1;fill-rule:nonzero;stroke:none"
           d="m 76.309,67.973 h 2.445 v 1.988 h -2.445 z" /><path
           id="path78"
           style="fill:#defc65;fill-opacity:1;fill-rule:nonzero;stroke:none"
           d="m 78.754,67.836 h 2.445 v 2.125 h -2.445 z" /><path
           id="path80"
           style="fill:#defc65;fill-opacity:1;fill-rule:nonzero;stroke:none"
           d="M 81.195,67.605 H 83.64 V 69.96 H 81.195 Z" /><path
           id="path82"
           style="fill:#defc65;fill-opacity:1;fill-rule:nonzero;stroke:none"
           d="m 83.641,67.305 h 2.445 v 2.656 h -2.445 z" /><path
           id="path84"
           style="fill:#defc65;fill-opacity:1;fill-rule:nonzero;stroke:none"
           d="m 86.082,66.98 h 2.445 v 2.98 h -2.445 z" /><path
           id="path86"
           style="fill:#defc65;fill-opacity:1;fill-rule:nonzero;stroke:none"
           d="m 88.527,66.637 h 2.445 v 3.324 h -2.445 z" /><path
           id="path88"
           style="fill:#defc65;fill-opacity:1;fill-rule:nonzero;stroke:none"
           d="m 90.969,66.273 h 2.445 v 3.688 h -2.445 z" /><path
           id="path90"
           style="fill:#defc65;fill-opacity:1;fill-rule:nonzero;stroke:none"
           d="m 93.414,65.906 h 2.445 v 4.055 h -2.445 z" /><path
           id="path92"
           style="fill:#defc65;fill-opacity:1;fill-rule:nonzero;stroke:none"
           d="M 95.855,65.555 H 98.3 v 4.406 h -2.445 z" /><path
           id="path94"
           style="fill:#defc65;fill-opacity:1;fill-rule:nonzero;stroke:none"
           d="m 98.301,65.23 h 2.445 v 4.73 h -2.445 z" /><path
           id="path96"
           style="fill:#defc65;fill-opacity:1;fill-rule:nonzero;stroke:none"
           d="m 100.742,64.93 h 2.445 v 5.031 h -2.445 z" /><path
           id="path98"
           style="fill:#defc65;fill-opacity:1;fill-rule:nonzero;stroke:none"
           d="m 103.188,64.637 h 2.445 v 5.324 h -2.445 z" /><path
           id="path100"
           style="fill:#defc65;fill-opacity:1;fill-rule:nonzero;stroke:none"
           d="m 105.629,64.34 h 2.445 v 5.621 h -2.445 z" /><path
           id="path102"
           style="fill:#defc65;fill-opacity:1;fill-rule:nonzero;stroke:none"
           d="m 108.074,64.051 h 2.445 v 5.91 h -2.445 z" /><path
           id="path104"
           style="fill:#defc65;fill-opacity:1;fill-rule:nonzero;stroke:none"
           d="m 110.516,63.918 h 2.445 v 6.043 h -2.445 z" /><path
           id="path106"
           style="fill:#defc65;fill-opacity:1;fill-rule:nonzero;stroke:none"
           d="m 112.961,64.031 h 2.445 v 5.93 h -2.445 z" /><path
           id="path108"
           style="fill:#defc65;fill-opacity:1;fill-rule:nonzero;stroke:none"
           d="m 115.402,64.359 h 2.445 v 5.602 h -2.445 z" /><path
           id="path110"
           style="fill:#defc65;fill-opacity:1;fill-rule:nonzero;stroke:none"
           d="m 117.848,64.879 h 2.445 v 5.082 h -2.445 z" /><path
           id="path112"
           style="fill:#defc65;fill-opacity:1;fill-rule:nonzero;stroke:none"
           d="m 120.293,65.574 h 2.445 v 4.387 h -2.445 z" /><path
           id="path114"
           style="fill:#defc65;fill-opacity:1;fill-rule:nonzero;stroke:none"
           d="m 122.734,66.336 h 2.445 v 3.625 h -2.445 z" /><path
           id="path116"
           style="fill:#defc65;fill-opacity:1;fill-rule:nonzero;stroke:none"
           d="m 125.18,67.09 h 2.445 v 2.871 h -2.445 z" /><path
           id="path118"
           style="fill:#defc65;fill-opacity:1;fill-rule:nonzero;stroke:none"
           d="m 127.621,67.848 h 2.445 v 2.113 h -2.445 z" /><path
           id="path120"
           style="fill:#defc65;fill-opacity:1;fill-rule:nonzero;stroke:none"
           d="m 130.066,68.621 h 2.445 v 1.34 h -2.445 z" /><path
           id="path122"
           style="fill:#defc65;fill-opacity:1;fill-rule:nonzero;stroke:none"
           d="m 132.508,69.402 h 2.445 v 0.559 h -2.445 z" /><path
           id="path124"
           style="fill:#defc65;fill-opacity:1;fill-rule:nonzero;stroke:none"
           d="m 134.953,69.777 h 2.445 v 0.184 h -2.445 z" /><path
           id="path126"
           style="fill:#defc65;fill-opacity:1;fill-rule:nonzero;stroke:none"
           d="m 137.395,69.121 h 2.445 v 0.84 h -2.445 z" /><path
           id="path128"
           style="fill:#defc65;fill-opacity:1;fill-rule:nonzero;stroke:none"
           d="m 139.84,67.305 h 2.445 v 2.656 h -2.445 z" /></g></g><g
       id="g130"><g
         clip-path="url(#clipPath136)"
         id="g132"><path
           id="path138"
           style="fill:#fc6579;fill-opacity:1;fill-rule:nonzero;stroke:none"
           d="m 24.996,69.961 h 2.445 v 50.43 h -2.445 z" /></g></g><g
       id="g140"><g
         clip-path="url(#clipPath146)"
         id="g142"><path
           id="path148"
           style="fill:#fc6579;fill-opacity:1;fill-rule:nonzero;stroke:none"
           d="m 27.441,69.957 h 2.445 v 48.918 h -2.445 z" /></g></g><g
       id="g150"><g
         clip-path="url(#clipPath156)"
         id="g152"><path
           id="path158"
           style="fill:#fc6579;fill-opacity:1;fill-rule:nonzero;stroke:none"
           d="m 29.883,69.961 h 2.445 v 45.918 h -2.445 z" /></g></g><g
       id="g160"><g
         clip-path="url(#clipPath166)"
         id="g162"><path
           id="path168"
           style="fill:#fc6579;fill-opacity:1;fill-rule:nonzero;stroke:none"
           d="m 32.328,69.957 h 2.445 v 38.383 h -2.445 z" /></g></g><g
       id="g170"><path
         id="path172"
         style="fill:#fc6579;fill-opacity:1;fill-rule:nonzero;stroke:none"
         d="m 34.77,69.961 h 2.445 V 96.828 H 34.77 Z" /><path
         id="path174"
         style="fill:#fc6579;fill-opacity:1;fill-rule:nonzero;stroke:none"
         d="m 37.215,69.961 h 2.445 v 15.82 h -2.445 z" /><path
         id="path176"
         style="fill:#fc6579;fill-opacity:1;fill-rule:nonzero;stroke:none"
         d="m 39.656,69.961 h 2.445 v 7.66 h -2.445 z" /><path
         id="path178"
         style="fill:#fc6579;fill-opacity:1;fill-rule:nonzero;stroke:none"
         d="m 42.102,69.961 h 2.445 v 3.102 h -2.445 z" /><path
         id="path180"
         style="fill:#fc6579;fill-opacity:1;fill-rule:nonzero;stroke:none"
         d="m 44.543,67.82 h 2.445 v 0.227 h -2.445 z" /><path
         id="path182"
         style="fill:#fc6579;fill-opacity:1;fill-rule:nonzero;stroke:none"
         d="m 46.988,63.5 h 2.445 v 4.656 h -2.445 z" /><path
         id="path184"
         style="fill:#fc6579;fill-opacity:1;fill-rule:nonzero;stroke:none"
         d="m 49.43,57.078 h 2.445 V 68.215 H 49.43 Z" /><path
         id="path186"
         style="fill:#fc6579;fill-opacity:1;fill-rule:nonzero;stroke:none"
         d="M 51.875,49.895 H 54.32 V 68.208 H 51.875 Z" /><path
         id="path188"
         style="fill:#fc6579;fill-opacity:1;fill-rule:nonzero;stroke:none"
         d="m 54.316,45.262 h 2.445 v 22.875 h -2.445 z" /><path
         id="path190"
         style="fill:#fc6579;fill-opacity:1;fill-rule:nonzero;stroke:none"
         d="m 56.762,44.41 h 2.445 v 23.598 h -2.445 z" /><path
         id="path192"
         style="fill:#fc6579;fill-opacity:1;fill-rule:nonzero;stroke:none"
         d="m 59.203,46.25 h 2.445 v 21.605 h -2.445 z" /><path
         id="path194"
         style="fill:#fc6579;fill-opacity:1;fill-rule:nonzero;stroke:none"
         d="m 61.648,49.969 h 2.445 v 17.793 h -2.445 z" /><path
         id="path196"
         style="fill:#fc6579;fill-opacity:1;fill-rule:nonzero;stroke:none"
         d="m 64.09,54.898 h 2.445 V 67.734 H 64.09 Z" /><path
         id="path198"
         style="fill:#fc6579;fill-opacity:1;fill-rule:nonzero;stroke:none"
         d="m 66.535,59.559 h 2.445 v 8.215 h -2.445 z" /><path
         id="path200"
         style="fill:#fc6579;fill-opacity:1;fill-rule:nonzero;stroke:none"
         d="m 68.977,61.969 h 2.445 v 5.906 h -2.445 z" /><path
         id="path202"
         style="fill:#fc6579;fill-opacity:1;fill-rule:nonzero;stroke:none"
         d="m 71.422,60.574 h 2.445 v 7.414 h -2.445 z" /><path
         id="path204"
         style="fill:#fc6579;fill-opacity:1;fill-rule:nonzero;stroke:none"
         d="m 73.867,55.695 h 2.445 v 12.332 h -2.445 z" /><path
         id="path206"
         style="fill:#fc6579;fill-opacity:1;fill-rule:nonzero;stroke:none"
         d="m 76.309,50.66 h 2.445 v 17.313 h -2.445 z" /><path
         id="path208"
         style="fill:#fc6579;fill-opacity:1;fill-rule:nonzero;stroke:none"
         d="m 78.754,47.234 h 2.445 v 20.598 h -2.445 z" /><path
         id="path210"
         style="fill:#fc6579;fill-opacity:1;fill-rule:nonzero;stroke:none"
         d="M 81.195,45.211 H 83.64 V 67.606 H 81.195 Z" /><path
         id="path212"
         style="fill:#fc6579;fill-opacity:1;fill-rule:nonzero;stroke:none"
         d="m 83.641,42.426 h 2.445 v 24.879 h -2.445 z" /></g><g
       id="g214"><g
         clip-path="url(#clipPath220)"
         id="g216"><path
           id="path222"
           style="fill:#fc6579;fill-opacity:1;fill-rule:nonzero;stroke:none"
           d="m 86.082,38.367 h 2.445 V 66.98 h -2.445 z" /></g></g><g
       id="g224"><g
         clip-path="url(#clipPath230)"
         id="g226"><path
           id="path232"
           style="fill:#fc6579;fill-opacity:1;fill-rule:nonzero;stroke:none"
           d="m 88.527,34.387 h 2.445 v 32.25 h -2.445 z" /></g></g><g
       id="g234"><g
         clip-path="url(#clipPath240)"
         id="g236"><path
           id="path242"
           style="fill:#fc6579;fill-opacity:1;fill-rule:nonzero;stroke:none"
           d="m 90.969,32.973 h 2.445 v 33.301 h -2.445 z" /></g></g><g
       id="g244"><g
         clip-path="url(#clipPath250)"
         id="g246"><path
           id="path252"
           style="fill:#fc6579;fill-opacity:1;fill-rule:nonzero;stroke:none"
           d="m 93.414,35.719 h 2.445 v 30.188 h -2.445 z" /></g></g><g
       id="g254"><path
         id="path256"
         style="fill:#fc6579;fill-opacity:1;fill-rule:nonzero;stroke:none"
         d="M 95.855,41.414 H 98.3 v 24.141 h -2.445 z" /><path
         id="path258"
         style="fill:#fc6579;fill-opacity:1;fill-rule:nonzero;stroke:none"
         d="m 98.301,47.785 h 2.445 V 65.23 h -2.445 z" /><path
         id="path260"
         style="fill:#fc6579;fill-opacity:1;fill-rule:nonzero;stroke:none"
         d="m 100.742,53.328 h 2.445 V 64.93 h -2.445 z" /><path
         id="path262"
         style="fill:#fc6579;fill-opacity:1;fill-rule:nonzero;stroke:none"
         d="m 103.188,57.332 h 2.445 v 7.305 h -2.445 z" /><path
         id="path264"
         style="fill:#fc6579;fill-opacity:1;fill-rule:nonzero;stroke:none"
         d="m 105.629,59.633 h 2.445 v 4.707 h -2.445 z" /><path
         id="path266"
         style="fill:#fc6579;fill-opacity:1;fill-rule:nonzero;stroke:none"
         d="m 108.074,60.188 h 2.445 v 3.863 h -2.445 z" /><path
         id="path268"
         style="fill:#fc6579;fill-opacity:1;fill-rule:nonzero;stroke:none"
         d="m 110.516,59.586 h 2.445 v 4.332 h -2.445 z" /><path
         id="path270"
         style="fill:#fc6579;fill-opacity:1;fill-rule:nonzero;stroke:none"
         d="m 112.961,57.559 h 2.445 v 6.469 h -2.445 z" /><path
         id="path272"
         style="fill:#fc6579;fill-opacity:1;fill-rule:nonzero;stroke:none"
         d="m 115.402,53.992 h 2.445 v 10.367 h -2.445 z" /><path
         id="path274"
         style="fill:#fc6579;fill-opacity:1;fill-rule:nonzero;stroke:none"
         d="m 117.848,50.16 h 2.445 v 14.719 h -2.445 z" /><path
         id="path276"
         style="fill:#fc6579;fill-opacity:1;fill-rule:nonzero;stroke:none"
         d="m 120.293,47.133 h 2.445 v 18.438 h -2.445 z" /><path
         id="path278"
         style="fill:#fc6579;fill-opacity:1;fill-rule:nonzero;stroke:none"
         d="m 122.734,45.113 h 2.445 v 21.219 h -2.445 z" /><path
         id="path280"
         style="fill:#fc6579;fill-opacity:1;fill-rule:nonzero;stroke:none"
         d="m 125.18,44.559 h 2.445 V 67.09 h -2.445 z" /><path
         id="path282"
         style="fill:#fc6579;fill-opacity:1;fill-rule:nonzero;stroke:none"
         d="m 127.621,45.32 h 2.445 v 22.527 h -2.445 z" /><path
         id="path284"
         style="fill:#fc6579;fill-opacity:1;fill-rule:nonzero;stroke:none"
         d="m 130.066,45.688 h 2.445 v 22.934 h -2.445 z" /><path
         id="path286"
         style="fill:#fc6579;fill-opacity:1;fill-rule:nonzero;stroke:none"
         d="m 132.508,45.711 h 2.445 v 23.691 h -2.445 z" /><path
         id="path288"
         style="fill:#fc6579;fill-opacity:1;fill-rule:nonzero;stroke:none"
         d="m 134.953,45.961 h 2.445 v 23.816 h -2.445 z" /><path
         id="path290"
         style="fill:#fc6579;fill-opacity:1;fill-rule:nonzero;stroke:none"
         d="m 137.395,45.688 h 2.445 v 23.434 h -2.445 z" /><path
         id="path292"
         style="fill:#fc6579;fill-opacity:1;fill-rule:nonzero;stroke:none"
         d="m 139.84,43.699 h 2.445 v 23.605 h -2.445 z" /></g><g
       id="g294"><g
         clip-path="url(#clipPath300)"
         id="g296"><path
           id="path302"
           style="fill:#4d4d4d;fill-opacity:1;fill-rule:nonzero;stroke:#000000;stroke-width:1.06698;stroke-linecap:round;stroke-linejoin:round;stroke-miterlimit:10;stroke-dasharray:none;stroke-opacity:1"
           d="M 160.348,39.418 H 282.52 v 61.086 H 160.348 Z" /><path
           id="path304"
           style="fill:#defc65;fill-opacity:1;fill-rule:nonzero;stroke:none"
           d="m 161.57,68.813 h 2.445 v 1.148 h -2.445 z" /><path
           id="path306"
           style="fill:#defc65;fill-opacity:1;fill-rule:nonzero;stroke:none"
           d="m 164.012,68.473 h 2.445 v 1.488 h -2.445 z" /><path
           id="path308"
           style="fill:#defc65;fill-opacity:1;fill-rule:nonzero;stroke:none"
           d="m 166.457,68.004 h 2.445 v 1.957 h -2.445 z" /><path
           id="path310"
           style="fill:#defc65;fill-opacity:1;fill-rule:nonzero;stroke:none"
           d="m 168.898,67.457 h 2.445 v 2.504 h -2.445 z" /><path
           id="path312"
           style="fill:#defc65;fill-opacity:1;fill-rule:nonzero;stroke:none"
           d="m 171.344,67.004 h 2.445 v 2.957 h -2.445 z" /><path
           id="path314"
           style="fill:#defc65;fill-opacity:1;fill-rule:nonzero;stroke:none"
           d="m 173.785,66.707 h 2.445 v 3.254 h -2.445 z" /><path
           id="path316"
           style="fill:#defc65;fill-opacity:1;fill-rule:nonzero;stroke:none"
           d="m 176.23,66.531 h 2.445 v 3.43 h -2.445 z" /><path
           id="path318"
           style="fill:#defc65;fill-opacity:1;fill-rule:nonzero;stroke:none"
           d="m 178.672,66.477 h 2.445 v 3.484 h -2.445 z" /><path
           id="path320"
           style="fill:#defc65;fill-opacity:1;fill-rule:nonzero;stroke:none"
           d="m 181.117,66.547 h 2.445 v 3.414 h -2.445 z" /><path
           id="path322"
           style="fill:#defc65;fill-opacity:1;fill-rule:nonzero;stroke:none"
           d="m 183.559,66.641 h 2.445 v 3.32 h -2.445 z" /><path
           id="path324"
           style="fill:#defc65;fill-opacity:1;fill-rule:nonzero;stroke:none"
           d="m 186.004,66.66 h 2.445 v 3.301 h -2.445 z" /><path
           id="path326"
           style="fill:#defc65;fill-opacity:1;fill-rule:nonzero;stroke:none"
           d="m 188.449,66.582 h 2.445 v 3.379 h -2.445 z" /><path
           id="path328"
           style="fill:#defc65;fill-opacity:1;fill-rule:nonzero;stroke:none"
           d="m 190.891,66.402 h 2.445 v 3.559 h -2.445 z" /><path
           id="path330"
           style="fill:#defc65;fill-opacity:1;fill-rule:nonzero;stroke:none"
           d="m 193.336,66.125 h 2.445 v 3.836 h -2.445 z" /><path
           id="path332"
           style="fill:#defc65;fill-opacity:1;fill-rule:nonzero;stroke:none"
           d="m 195.777,65.816 h 2.445 v 4.145 h -2.445 z" /><path
           id="path334"
           style="fill:#defc65;fill-opacity:1;fill-rule:nonzero;stroke:none"
           d="m 198.223,65.586 h 2.445 v 4.375 h -2.445 z" /><path
           id="path336"
           style="fill:#defc65;fill-opacity:1;fill-rule:nonzero;stroke:none"
           d="m 200.664,65.465 h 2.445 v 4.496 h -2.445 z" /><path
           id="path338"
           style="fill:#defc65;fill-opacity:1;fill-rule:nonzero;stroke:none"
           d="m 203.109,65.453 h 2.445 v 4.508 h -2.445 z" /><path
           id="path340"
           style="fill:#defc65;fill-opacity:1;fill-rule:nonzero;stroke:none"
           d="m 205.551,65.547 h 2.445 v 4.414 h -2.445 z" /><path
           id="path342"
           style="fill:#defc65;fill-opacity:1;fill-rule:nonzero;stroke:none"
           d="m 207.996,65.676 h 2.445 v 4.285 h -2.445 z" /><path
           id="path344"
           style="fill:#defc65;fill-opacity:1;fill-rule:nonzero;stroke:none"
           d="m 210.438,65.676 h 2.445 v 4.285 h -2.445 z" /><path
           id="path346"
           style="fill:#defc65;fill-opacity:1;fill-rule:nonzero;stroke:none"
           d="m 212.883,65.527 h 2.445 v 4.434 h -2.445 z" /><path
           id="path348"
           style="fill:#defc65;fill-opacity:1;fill-rule:nonzero;stroke:none"
           d="m 215.324,65.23 h 2.445 v 4.73 h -2.445 z" /><path
           id="path350"
           style="fill:#defc65;fill-opacity:1;fill-rule:nonzero;stroke:none"
           d="m 217.77,64.789 h 2.445 v 5.172 h -2.445 z" /><path
           id="path352"
           style="fill:#defc65;fill-opacity:1;fill-rule:nonzero;stroke:none"
           d="m 220.211,64.23 h 2.445 v 5.73 h -2.445 z" /><path
           id="path354"
           style="fill:#defc65;fill-opacity:1;fill-rule:nonzero;stroke:none"
           d="m 222.656,63.652 h 2.445 v 6.309 h -2.445 z" /><path
           id="path356"
           style="fill:#defc65;fill-opacity:1;fill-rule:nonzero;stroke:none"
           d="m 225.098,63.066 h 2.445 v 6.895 h -2.445 z" /><path
           id="path358"
           style="fill:#defc65;fill-opacity:1;fill-rule:nonzero;stroke:none"
           d="m 227.543,62.477 h 2.445 v 7.484 h -2.445 z" /><path
           id="path360"
           style="fill:#defc65;fill-opacity:1;fill-rule:nonzero;stroke:none"
           d="m 229.984,61.922 h 2.445 v 8.039 h -2.445 z" /><path
           id="path362"
           style="fill:#defc65;fill-opacity:1;fill-rule:nonzero;stroke:none"
           d="m 232.43,61.449 h 2.445 v 8.512 h -2.445 z" /><path
           id="path364"
           style="fill:#defc65;fill-opacity:1;fill-rule:nonzero;stroke:none"
           d="m 234.875,61.113 h 2.445 v 8.848 h -2.445 z" /><path
           id="path366"
           style="fill:#defc65;fill-opacity:1;fill-rule:nonzero;stroke:none"
           d="m 237.316,60.918 h 2.445 v 9.043 h -2.445 z" /><path
           id="path368"
           style="fill:#defc65;fill-opacity:1;fill-rule:nonzero;stroke:none"
           d="m 239.762,60.824 h 2.445 v 9.137 h -2.445 z" /><path
           id="path370"
           style="fill:#defc65;fill-opacity:1;fill-rule:nonzero;stroke:none"
           d="m 242.203,60.813 h 2.445 v 9.148 h -2.445 z" /><path
           id="path372"
           style="fill:#defc65;fill-opacity:1;fill-rule:nonzero;stroke:none"
           d="m 244.648,60.859 h 2.445 v 9.102 h -2.445 z" /><path
           id="path374"
           style="fill:#defc65;fill-opacity:1;fill-rule:nonzero;stroke:none"
           d="m 247.09,61.039 h 2.445 v 8.922 h -2.445 z" /><path
           id="path376"
           style="fill:#defc65;fill-opacity:1;fill-rule:nonzero;stroke:none"
           d="m 249.535,61.387 h 2.445 v 8.574 h -2.445 z" /><path
           id="path378"
           style="fill:#defc65;fill-opacity:1;fill-rule:nonzero;stroke:none"
           d="m 251.977,61.883 h 2.445 v 8.078 h -2.445 z" /><path
           id="path380"
           style="fill:#defc65;fill-opacity:1;fill-rule:nonzero;stroke:none"
           d="m 254.422,62.508 h 2.445 v 7.453 h -2.445 z" /><path
           id="path382"
           style="fill:#defc65;fill-opacity:1;fill-rule:nonzero;stroke:none"
           d="m 256.863,63.246 h 2.445 v 6.715 h -2.445 z" /><path
           id="path384"
           style="fill:#defc65;fill-opacity:1;fill-rule:nonzero;stroke:none"
           d="m 259.309,64.078 h 2.445 v 5.883 h -2.445 z" /><path
           id="path386"
           style="fill:#defc65;fill-opacity:1;fill-rule:nonzero;stroke:none"
           d="m 261.75,64.996 h 2.445 v 4.965 h -2.445 z" /><path
           id="path388"
           style="fill:#defc65;fill-opacity:1;fill-rule:nonzero;stroke:none"
           d="m 264.195,66.008 h 2.445 v 3.953 h -2.445 z" /><path
           id="path390"
           style="fill:#defc65;fill-opacity:1;fill-rule:nonzero;stroke:none"
           d="m 266.637,67.125 h 2.445 v 2.836 h -2.445 z" /><path
           id="path392"
           style="fill:#defc65;fill-opacity:1;fill-rule:nonzero;stroke:none"
           d="m 269.082,68.355 h 2.445 v 1.605 h -2.445 z" /><path
           id="path394"
           style="fill:#defc65;fill-opacity:1;fill-rule:nonzero;stroke:none"
           d="m 271.523,69.105 h 2.445 v 0.855 h -2.445 z" /><path
           id="path396"
           style="fill:#defc65;fill-opacity:1;fill-rule:nonzero;stroke:none"
           d="m 273.969,68.484 h 2.445 v 1.477 h -2.445 z" /><path
           id="path398"
           style="fill:#defc65;fill-opacity:1;fill-rule:nonzero;stroke:none"
           d="m 276.41,66.309 h 2.445 v 3.652 h -2.445 z" /></g></g><g
       id="g400"><g
         clip-path="url(#clipPath406)"
         id="g402"><path
           id="path408"
           style="fill:#fc6579;fill-opacity:1;fill-rule:nonzero;stroke:none"
           d="m 161.57,69.957 h 2.445 v 43.875 h -2.445 z" /></g></g><g
       id="g410"><g
         clip-path="url(#clipPath416)"
         id="g412"><path
           id="path418"
           style="fill:#fc6579;fill-opacity:1;fill-rule:nonzero;stroke:none"
           d="m 164.012,69.957 h 2.445 v 42.719 h -2.445 z" /></g></g><g
       id="g420"><g
         clip-path="url(#clipPath426)"
         id="g422"><path
           id="path428"
           style="fill:#fc6579;fill-opacity:1;fill-rule:nonzero;stroke:none"
           d="m 166.457,69.961 h 2.445 v 40.211 h -2.445 z" /></g></g><g
       id="g430"><g
         clip-path="url(#clipPath436)"
         id="g432"><path
           id="path438"
           style="fill:#fc6579;fill-opacity:1;fill-rule:nonzero;stroke:none"
           d="m 168.898,69.961 h 2.445 v 33.727 h -2.445 z" /></g></g><g
       id="g440"><path
         id="path442"
         style="fill:#fc6579;fill-opacity:1;fill-rule:nonzero;stroke:none"
         d="m 171.344,69.961 h 2.445 v 23.906 h -2.445 z" /><path
         id="path444"
         style="fill:#fc6579;fill-opacity:1;fill-rule:nonzero;stroke:none"
         d="m 173.785,69.961 h 2.445 V 84.59 h -2.445 z" /><path
         id="path446"
         style="fill:#fc6579;fill-opacity:1;fill-rule:nonzero;stroke:none"
         d="m 176.23,69.961 h 2.445 v 7.918 h -2.445 z" /><path
         id="path448"
         style="fill:#fc6579;fill-opacity:1;fill-rule:nonzero;stroke:none"
         d="m 178.672,69.957 h 2.445 v 4.363 h -2.445 z" /><path
         id="path450"
         style="fill:#fc6579;fill-opacity:1;fill-rule:nonzero;stroke:none"
         d="m 181.117,69.961 h 2.445 v 1.691 h -2.445 z" /><path
         id="path452"
         style="fill:#fc6579;fill-opacity:1;fill-rule:nonzero;stroke:none"
         d="m 183.559,64.441 h 2.445 v 2.199 h -2.445 z" /><path
         id="path454"
         style="fill:#fc6579;fill-opacity:1;fill-rule:nonzero;stroke:none"
         d="m 186.004,58.621 h 2.445 v 8.039 h -2.445 z" /><path
         id="path456"
         style="fill:#fc6579;fill-opacity:1;fill-rule:nonzero;stroke:none"
         d="m 188.449,52.078 h 2.445 v 14.504 h -2.445 z" /><path
         id="path458"
         style="fill:#fc6579;fill-opacity:1;fill-rule:nonzero;stroke:none"
         d="m 190.891,47.695 h 2.445 v 18.707 h -2.445 z" /><path
         id="path460"
         style="fill:#fc6579;fill-opacity:1;fill-rule:nonzero;stroke:none"
         d="m 193.336,46.469 h 2.445 v 19.656 h -2.445 z" /><path
         id="path462"
         style="fill:#fc6579;fill-opacity:1;fill-rule:nonzero;stroke:none"
         d="m 195.777,47.48 h 2.445 v 18.336 h -2.445 z" /><path
         id="path464"
         style="fill:#fc6579;fill-opacity:1;fill-rule:nonzero;stroke:none"
         d="m 198.223,50.184 h 2.445 v 15.402 h -2.445 z" /><path
         id="path466"
         style="fill:#fc6579;fill-opacity:1;fill-rule:nonzero;stroke:none"
         d="m 200.664,54.117 h 2.445 v 11.344 h -2.445 z" /><path
         id="path468"
         style="fill:#fc6579;fill-opacity:1;fill-rule:nonzero;stroke:none"
         d="m 203.109,57.922 h 2.445 v 7.531 h -2.445 z" /><path
         id="path470"
         style="fill:#fc6579;fill-opacity:1;fill-rule:nonzero;stroke:none"
         d="m 205.551,59.715 h 2.445 v 5.832 h -2.445 z" /><path
         id="path472"
         style="fill:#fc6579;fill-opacity:1;fill-rule:nonzero;stroke:none"
         d="m 207.996,58.082 h 2.445 v 7.594 h -2.445 z" /><path
         id="path474"
         style="fill:#fc6579;fill-opacity:1;fill-rule:nonzero;stroke:none"
         d="m 210.438,53.387 h 2.445 v 12.289 h -2.445 z" /><path
         id="path476"
         style="fill:#fc6579;fill-opacity:1;fill-rule:nonzero;stroke:none"
         d="m 212.883,48.746 h 2.445 v 16.777 h -2.445 z" /><path
         id="path478"
         style="fill:#fc6579;fill-opacity:1;fill-rule:nonzero;stroke:none"
         d="m 215.324,45.77 h 2.445 v 19.461 h -2.445 z" /><path
         id="path480"
         style="fill:#fc6579;fill-opacity:1;fill-rule:nonzero;stroke:none"
         d="m 217.77,44.152 h 2.445 v 20.637 h -2.445 z" /><path
         id="path482"
         style="fill:#fc6579;fill-opacity:1;fill-rule:nonzero;stroke:none"
         d="m 220.211,41.809 h 2.445 v 22.422 h -2.445 z" /></g><g
       id="g484"><g
         clip-path="url(#clipPath490)"
         id="g486"><path
           id="path492"
           style="fill:#fc6579;fill-opacity:1;fill-rule:nonzero;stroke:none"
           d="m 222.656,38.297 h 2.445 v 25.352 h -2.445 z" /></g></g><g
       id="g494"><g
         clip-path="url(#clipPath500)"
         id="g496"><path
           id="path502"
           style="fill:#fc6579;fill-opacity:1;fill-rule:nonzero;stroke:none"
           d="m 225.098,34.809 h 2.445 v 28.254 h -2.445 z" /></g></g><g
       id="g504"><g
         clip-path="url(#clipPath510)"
         id="g506"><path
           id="path512"
           style="fill:#fc6579;fill-opacity:1;fill-rule:nonzero;stroke:none"
           d="m 227.543,33.43 h 2.445 v 29.047 h -2.445 z" /></g></g><g
       id="g514"><g
         clip-path="url(#clipPath520)"
         id="g516"><path
           id="path522"
           style="fill:#fc6579;fill-opacity:1;fill-rule:nonzero;stroke:none"
           d="m 229.984,35.551 h 2.445 v 26.371 h -2.445 z" /></g></g><g
       id="g524"><path
         id="path526"
         style="fill:#fc6579;fill-opacity:1;fill-rule:nonzero;stroke:none"
         d="m 232.43,40.168 h 2.445 v 21.277 h -2.445 z" /><path
         id="path528"
         style="fill:#fc6579;fill-opacity:1;fill-rule:nonzero;stroke:none"
         d="m 234.875,45.465 h 2.445 v 15.648 h -2.445 z" /><path
         id="path530"
         style="fill:#fc6579;fill-opacity:1;fill-rule:nonzero;stroke:none"
         d="m 237.316,50.273 h 2.445 v 10.641 h -2.445 z" /><path
         id="path532"
         style="fill:#fc6579;fill-opacity:1;fill-rule:nonzero;stroke:none"
         d="m 239.762,53.953 h 2.445 v 6.871 h -2.445 z" /><path
         id="path534"
         style="fill:#fc6579;fill-opacity:1;fill-rule:nonzero;stroke:none"
         d="m 242.203,56.246 h 2.445 v 4.566 h -2.445 z" /><path
         id="path536"
         style="fill:#fc6579;fill-opacity:1;fill-rule:nonzero;stroke:none"
         d="m 244.648,56.945 h 2.445 v 3.914 h -2.445 z" /><path
         id="path538"
         style="fill:#fc6579;fill-opacity:1;fill-rule:nonzero;stroke:none"
         d="m 247.09,56.473 h 2.445 v 4.563 h -2.445 z" /><path
         id="path540"
         style="fill:#fc6579;fill-opacity:1;fill-rule:nonzero;stroke:none"
         d="m 249.535,54.551 h 2.445 v 6.836 h -2.445 z" /><path
         id="path542"
         style="fill:#fc6579;fill-opacity:1;fill-rule:nonzero;stroke:none"
         d="m 251.977,51.18 h 2.445 v 10.703 h -2.445 z" /><path
         id="path544"
         style="fill:#fc6579;fill-opacity:1;fill-rule:nonzero;stroke:none"
         d="m 254.422,47.695 h 2.445 v 14.813 h -2.445 z" /><path
         id="path546"
         style="fill:#fc6579;fill-opacity:1;fill-rule:nonzero;stroke:none"
         d="m 256.863,45.129 h 2.445 v 18.113 h -2.445 z" /><path
         id="path548"
         style="fill:#fc6579;fill-opacity:1;fill-rule:nonzero;stroke:none"
         d="m 259.309,43.664 h 2.445 v 20.414 h -2.445 z" /><path
         id="path550"
         style="fill:#fc6579;fill-opacity:1;fill-rule:nonzero;stroke:none"
         d="m 261.75,43.695 h 2.445 v 21.297 h -2.445 z" /><path
         id="path552"
         style="fill:#fc6579;fill-opacity:1;fill-rule:nonzero;stroke:none"
         d="m 264.195,45.063 h 2.445 v 20.945 h -2.445 z" /><path
         id="path554"
         style="fill:#fc6579;fill-opacity:1;fill-rule:nonzero;stroke:none"
         d="m 266.637,46.094 h 2.445 v 21.031 h -2.445 z" /><path
         id="path556"
         style="fill:#fc6579;fill-opacity:1;fill-rule:nonzero;stroke:none"
         d="m 269.082,46.797 h 2.445 v 21.555 h -2.445 z" /><path
         id="path558"
         style="fill:#fc6579;fill-opacity:1;fill-rule:nonzero;stroke:none"
         d="m 271.523,47.531 h 2.445 v 21.574 h -2.445 z" /><path
         id="path560"
         style="fill:#fc6579;fill-opacity:1;fill-rule:nonzero;stroke:none"
         d="m 273.969,47.301 h 2.445 v 21.184 h -2.445 z" /><path
         id="path562"
         style="fill:#fc6579;fill-opacity:1;fill-rule:nonzero;stroke:none"
         d="m 276.41,44.949 h 2.445 v 21.359 h -2.445 z" /><text
         id="text566"
         style="font-variant:normal;font-weight:normal;font-size:7px;font-family:'Roboto Condensed';-inkscape-font-specification:RobotoCondensed-Regular;writing-mode:lr-tb;fill:#1a1a1a;fill-opacity:1;fill-rule:nonzero;stroke:none"
         transform="translate(73.195313,34.285156)"><tspan
           id="tspan564"
           sodipodi:role="line"
           y="0"
           x="0 3.3599999 6.6360002 11.9 15.253 16.856001 20.132 139.88281 145.16782 148.52081 150.12381 153.39981">FemalesMales</tspan></text><path
         id="path568"
         style="fill:none;stroke:#4d4d4d;stroke-width:0.213396;stroke-linecap:butt;stroke-linejoin:round;stroke-miterlimit:10;stroke-dasharray:none;stroke-opacity:1"
         d="m 23.773,103.242 v -2.738" /><path
         id="path570"
         style="fill:none;stroke:#4d4d4d;stroke-width:0.213396;stroke-linecap:butt;stroke-linejoin:round;stroke-miterlimit:10;stroke-dasharray:none;stroke-opacity:1"
         d="m 48.211,103.242 v -2.738" /><path
         id="path572"
         style="fill:none;stroke:#4d4d4d;stroke-width:0.213396;stroke-linecap:butt;stroke-linejoin:round;stroke-miterlimit:10;stroke-dasharray:none;stroke-opacity:1"
         d="m 72.645,103.242 v -2.738" /><path
         id="path574"
         style="fill:none;stroke:#4d4d4d;stroke-width:0.213396;stroke-linecap:butt;stroke-linejoin:round;stroke-miterlimit:10;stroke-dasharray:none;stroke-opacity:1"
         d="m 97.078,103.242 v -2.738" /><path
         id="path576"
         style="fill:none;stroke:#4d4d4d;stroke-width:0.213396;stroke-linecap:butt;stroke-linejoin:round;stroke-miterlimit:10;stroke-dasharray:none;stroke-opacity:1"
         d="m 121.512,103.242 v -2.738" /><path
         id="path578"
         style="fill:none;stroke:#4d4d4d;stroke-width:0.213396;stroke-linecap:butt;stroke-linejoin:round;stroke-miterlimit:10;stroke-dasharray:none;stroke-opacity:1"
         d="m 145.949,103.242 v -2.738" /><text
         id="text582"
         style="font-variant:normal;font-weight:normal;font-size:5.6px;font-family:'Roboto Condensed';-inkscape-font-specification:RobotoCondensed-Regular;writing-mode:lr-tb;fill:#4d4d4d;fill-opacity:1;fill-rule:nonzero;stroke:none"
         transform="translate(18.246094,109.41406)"><tspan
           id="tspan580"
           sodipodi:role="line"
           y="0"
           x="0 2.7607999 5.5215998 8.2824001 26.6952 27.6696 30.430401 51.122398 52.096802 54.857601 73.270401 76.031197 78.792 81.552803 100.01172 100.98611 103.74692 124.43892 125.41331 128.17412">1970'80'902000'10'20</tspan></text><path
         id="path584"
         style="fill:none;stroke:#4d4d4d;stroke-width:0.213396;stroke-linecap:butt;stroke-linejoin:round;stroke-miterlimit:10;stroke-dasharray:none;stroke-opacity:1"
         d="m 160.348,103.242 v -2.738" /><path
         id="path586"
         style="fill:none;stroke:#4d4d4d;stroke-width:0.213396;stroke-linecap:butt;stroke-linejoin:round;stroke-miterlimit:10;stroke-dasharray:none;stroke-opacity:1"
         d="m 184.781,103.242 v -2.738" /><path
         id="path588"
         style="fill:none;stroke:#4d4d4d;stroke-width:0.213396;stroke-linecap:butt;stroke-linejoin:round;stroke-miterlimit:10;stroke-dasharray:none;stroke-opacity:1"
         d="m 209.215,103.242 v -2.738" /><path
         id="path590"
         style="fill:none;stroke:#4d4d4d;stroke-width:0.213396;stroke-linecap:butt;stroke-linejoin:round;stroke-miterlimit:10;stroke-dasharray:none;stroke-opacity:1"
         d="m 233.652,103.242 v -2.738" /><path
         id="path592"
         style="fill:none;stroke:#4d4d4d;stroke-width:0.213396;stroke-linecap:butt;stroke-linejoin:round;stroke-miterlimit:10;stroke-dasharray:none;stroke-opacity:1"
         d="m 258.086,103.242 v -2.738" /><path
         id="path594"
         style="fill:none;stroke:#4d4d4d;stroke-width:0.213396;stroke-linecap:butt;stroke-linejoin:round;stroke-miterlimit:10;stroke-dasharray:none;stroke-opacity:1"
         d="m 282.52,103.242 v -2.738" /><text
         id="text608"
         style="font-variant:normal;font-weight:normal;font-size:5.6px;font-family:'Roboto Condensed';-inkscape-font-specification:RobotoCondensed-Regular;writing-mode:lr-tb;fill:#4d4d4d;fill-opacity:1;fill-rule:nonzero;stroke:none"
         transform="translate(154.82031,109.41406)"><tspan
           id="tspan596"
           sodipodi:role="line"
           y="0"
           x="0 2.7607999 5.5215998 8.2824001 26.6952 27.6696 30.430401 51.116798 52.091202 54.852001 73.270401 76.031197 78.792 81.552803 100.01172 100.98611 103.74692 124.43892 125.41331 128.17412">1970'80'902000'10'20</tspan><tspan
           id="tspan598"
           sodipodi:role="line"
           y="-6.9218745"
           x="-140.12891 -138.74011">-4</tspan><tspan
           id="tspan600"
           sodipodi:role="line"
           y="-22.191406"
           x="-140.12891 -138.74011">-2</tspan><tspan
           id="tspan602"
           y="-37.464848"
           x="-138.74219">0</tspan><tspan
           id="tspan604"
           y="-52.734379"
           x="-138.74219">2</tspan><tspan
           id="tspan606"
           y="-68.00782"
           x="-138.74219">4</tspan></text><path
         id="path610"
         style="fill:none;stroke:#4d4d4d;stroke-width:0.213396;stroke-linecap:butt;stroke-linejoin:round;stroke-miterlimit:10;stroke-dasharray:none;stroke-opacity:1"
         d="m 21.035,100.504 h 2.738" /><path
         id="path612"
         style="fill:none;stroke:#4d4d4d;stroke-width:0.213396;stroke-linecap:butt;stroke-linejoin:round;stroke-miterlimit:10;stroke-dasharray:none;stroke-opacity:1"
         d="m 21.035,85.23 h 2.738" /><path
         id="path614"
         style="fill:none;stroke:#4d4d4d;stroke-width:0.213396;stroke-linecap:butt;stroke-linejoin:round;stroke-miterlimit:10;stroke-dasharray:none;stroke-opacity:1"
         d="m 21.035,69.961 h 2.738" /><path
         id="path616"
         style="fill:none;stroke:#4d4d4d;stroke-width:0.213396;stroke-linecap:butt;stroke-linejoin:round;stroke-miterlimit:10;stroke-dasharray:none;stroke-opacity:1"
         d="m 21.035,54.688 h 2.738" /><path
         id="path618"
         style="fill:none;stroke:#4d4d4d;stroke-width:0.213396;stroke-linecap:butt;stroke-linejoin:round;stroke-miterlimit:10;stroke-dasharray:none;stroke-opacity:1"
         d="m 21.035,39.418 h 2.738" /><text
         id="text622"
         style="font-variant:normal;font-weight:normal;font-size:7px;font-family:'Roboto Condensed';-inkscape-font-specification:RobotoCondensed-Regular;writing-mode:lr-tb;fill:#000000;fill-opacity:1;fill-rule:nonzero;stroke:none"
         transform="translate(146.93359,118.32813)"><tspan
           id="tspan620"
           sodipodi:role="line"
           y="0"
           x="0 3.668 6.9439998 10.297">Year</tspan></text><text
         id="text626"
         style="font-variant:normal;font-weight:normal;font-size:7px;font-family:'Roboto Condensed';-inkscape-font-specification:RobotoCondensed-Regular;writing-mode:lr-tb;fill:#000000;fill-opacity:1;fill-rule:nonzero;stroke:none"
         transform="rotate(-90,51.34375,40.886719)"><tspan
           id="tspan624"
           sodipodi:role="line"
           y="0"
           x="0 3.9619999 7.4689999 10.85 12.915 15.043 16.646 20.097 23.478001 25.542999 27.146 30.653 34.034 35.637001 37.827999 42.251999">Contribution (%)</tspan></text></g><g
       id="g1710"
       transform="matrix(0.68213303,0,0,0.68213303,98.567673,-73.151476)"><rect
         y="282.98044"
         x="206.58647"
         height="14.143001"
         width="49.084534"
         id="rect832"
         style="opacity:1;fill:#defc65;fill-opacity:1;stroke:#defc65;stroke-width:0.566182;stroke-miterlimit:4;stroke-dasharray:none;stroke-dashoffset:0;stroke-opacity:1" /><text
         id="text1656"
         y="294.45499"
         x="231.65796"
         style="font-style:normal;font-variant:normal;font-weight:normal;font-stretch:normal;font-size:11.7279px;line-height:1.25;font-family:'Roboto Condensed';-inkscape-font-specification:'Roboto Condensed, ';text-align:center;letter-spacing:0px;word-spacing:0px;text-anchor:middle;fill:#000000;fill-opacity:1;stroke:none;stroke-width:0.75"
         xml:space="preserve"><tspan
           style="font-size:11.7279px;stroke-width:0.75"
           y="294.45499"
           x="231.65796"
           id="tspan1654"
           sodipodi:role="line">Longevity</tspan></text></g><g
       id="g1715"
       transform="matrix(0.68213303,0,0,0.68213303,117.26785,-81.237666)"><rect
         y="308.97769"
         x="179.17221"
         height="14.143001"
         width="49.084534"
         id="rect832-6"
         style="opacity:1;fill:#fc6579;fill-opacity:1;stroke:#fc6579;stroke-width:0.566182;stroke-miterlimit:4;stroke-dasharray:none;stroke-dashoffset:0;stroke-opacity:1" /><text
         id="text1656-2"
         y="320.58212"
         x="203.7242"
         style="font-style:normal;font-variant:normal;font-weight:normal;font-stretch:normal;font-size:11.7279px;line-height:1.25;font-family:'Roboto Condensed';-inkscape-font-specification:'Roboto Condensed, ';text-align:center;letter-spacing:0px;word-spacing:0px;text-anchor:middle;fill:#000000;fill-opacity:1;stroke:none;stroke-width:0.75"
         xml:space="preserve"><tspan
           style="font-size:11.7279px;stroke-width:0.75"
           y="320.58212"
           x="203.7242"
           id="tspan1654-2"
           sodipodi:role="line">Financial</tspan></text></g><text
       xml:space="preserve"
       style="font-style:normal;font-variant:normal;font-weight:normal;font-stretch:normal;font-size:8.00003px;line-height:1.25;font-family:'Roboto Condensed';-inkscape-font-specification:'Roboto Condensed, ';text-align:center;letter-spacing:0px;word-spacing:0px;text-anchor:middle;fill:#000000;fill-opacity:1;stroke:none;stroke-width:0.75"
       x="217.34396"
       y="131.43159"
       id="text1699"><tspan
         sodipodi:role="line"
         id="tspan1697"
         x="217.34396"
         y="131.43159"
         style="font-size:8.00003px;stroke-width:0.75">Component</tspan></text></g></svg>
