<?xml version="1.0" encoding="UTF-8" standalone="no"?>
<!-- Created with Inkscape (http://www.inkscape.org/) -->

<svg
   version="1.1"
   id="svg9"
   xml:space="preserve"
   width="244.81314"
   height="255.3748"
   viewBox="0 0 244.81315 255.3748"
   sodipodi:docname="deltamu.svg"
   inkscape:version="1.1 (c68e22c387, 2021-05-23)"
   xmlns:inkscape="http://www.inkscape.org/namespaces/inkscape"
   xmlns:sodipodi="http://sodipodi.sourceforge.net/DTD/sodipodi-0.dtd"
   xmlns="http://www.w3.org/2000/svg"
   xmlns:svg="http://www.w3.org/2000/svg"><defs
     id="defs13"><clipPath
       clipPathUnits="userSpaceOnUse"
       id="clipPath27"><path
         d="M 29.387,29 H 174.52 V 95 H 29.387 Z"
         id="path25" /></clipPath><clipPath
       clipPathUnits="userSpaceOnUse"
       id="clipPath37"><path
         d="M 29.387,39 H 174.52 V 95 H 29.387 Z"
         id="path35" /></clipPath><clipPath
       clipPathUnits="userSpaceOnUse"
       id="clipPath193"><path
         d="M 29.387,45 H 173 V 95 H 29.387 Z"
         id="path191" /></clipPath><clipPath
       clipPathUnits="userSpaceOnUse"
       id="clipPath203"><path
         d="M 29.387,35 H 174 V 82 H 29.387 Z"
         id="path201" /></clipPath><clipPath
       clipPathUnits="userSpaceOnUse"
       id="clipPath213"><path
         d="M 29.387,26.059 H 173 V 66 H 29.387 Z"
         id="path211" /></clipPath><clipPath
       clipPathUnits="userSpaceOnUse"
       id="clipPath223"><path
         d="M 29.387,48 H 173 V 95 H 29.387 Z"
         id="path221" /></clipPath><clipPath
       clipPathUnits="userSpaceOnUse"
       id="clipPath233"><path
         d="M 29.387,37 H 173 V 82 H 29.387 Z"
         id="path231" /></clipPath><clipPath
       clipPathUnits="userSpaceOnUse"
       id="clipPath243"><path
         d="M 29.387,26.059 H 173 V 66 H 29.387 Z"
         id="path241" /></clipPath></defs><sodipodi:namedview
     id="namedview11"
     pagecolor="#ffffff"
     bordercolor="#666666"
     borderopacity="1.0"
     inkscape:pageshadow="2"
     inkscape:pageopacity="0.0"
     inkscape:pagecheckerboard="false"
     showgrid="false"
     fit-margin-top="0"
     fit-margin-left="0"
     fit-margin-right="0"
     fit-margin-bottom="0"
     inkscape:zoom="1.8297715"
     inkscape:cx="89.082161"
     inkscape:cy="174.88523"
     inkscape:window-width="1920"
     inkscape:window-height="986"
     inkscape:window-x="-11"
     inkscape:window-y="-11"
     inkscape:window-maximized="1"
     inkscape:current-layer="g15" /><g
     id="g15"
     inkscape:groupmode="layer"
     inkscape:label="delta"
     transform="matrix(1.3333333,0,0,1.3333333,-6.455078,-32.01459)"><g
       id="g21"><g
         id="g23"
         clip-path="url(#clipPath27)"><path
           d="m 0,82.566 0.363,0.137 0.907,0.547 0.906,-0.02 0.906,-1.457 0.906,0.481 0.91,0.793 0.907,0.492 0.906,0.035 0.906,-0.121 0.906,0.149 0.911,0.367 0.906,-0.274 0.906,-0.277 0.906,-0.141 0.911,0.434 0.906,0.566 0.906,0.551 0.906,-0.137 0.907,-0.414 0.91,-1.355 0.906,-0.266 0.906,1.215 0.906,0.535 0.907,0.106 0.91,0.363 0.906,-0.316 0.906,-0.903 0.907,-0.226 0.91,0.543 0.906,-0.246 0.906,0.777 0.906,-0.371 0.907,-0.11 0.91,-0.316 0.906,0.238 0.906,-0.093 0.907,-0.411 0.906,-0.097 0.91,-0.262 0.906,0.844 0.907,0.101 0.906,-0.117 0.906,-0.113 0.91,0.086 0.906,-0.051 0.907,0.023 0.906,-0.027 0.91,0.215 0.906,0.187 0.907,0.051 0.906,-0.039 0.906,0.367 0.91,0.145 0.907,0.601 0.906,-0.066 0.906,0.402 0.906,0.532 0.91,-0.586 0.907,0.148 0.906,0.371 0.906,0.481 0.906,-0.012 0.911,-0.184 0.906,-0.078 0.906,0.157 0.906,0.23 0.91,0.363 0.907,0.598 0.906,0.477 0.906,0.171 0.906,-0.117 0.911,-0.402 0.906,-0.77 0.906,-0.648 0.906,0.066 0.907,-0.504 0.91,-0.332 0.906,0.227 0.906,-0.219 0.907,-0.637 0.91,0.336 0.906,-0.41 0.906,-0.472 0.906,-0.305 0.907,-0.606 0.91,-0.488 0.906,-0.246 0.906,-1.707 0.907,-2.078 0.906,-1.203 0.91,0.695 0.906,-0.945 0.907,-3.305 0.906,0.754 0.906,3.664 0.91,0.434 0.906,-0.352 0.907,-0.301 0.906,-0.386 0.91,-0.149 0.906,0.418 0.907,-0.461 0.906,0.543 0.906,0.227 0.91,2.925 0.906,1.688 0.907,1.375 0.906,0.785 0.906,-0.168 0.91,-1.625 0.907,-0.488 0.906,-1.461 0.906,1.562 0.91,1.219 0.907,0.422 0.906,-0.344 0.906,-0.164 0.906,1.102 0.91,1.367 0.907,-0.809 0.906,-1.988 0.906,-0.422 0.906,-1.113 0.911,-0.914 0.906,-2.211 0.906,0.691 0.906,1.481 0.907,-1.906 0.91,-2.555 0.906,-1.203 0.906,0.097 0.907,0.719 0.91,-2.871 0.906,-3.68 0.906,1.317 0.906,1.769 0.907,-2.136 0.91,-1.696 0.906,-1.742 0.906,0.399 0.907,-3.309 0.906,-6.719 0.91,-1.328 0.906,0.875 0.906,-0.715 0.907,-7.761 0.91,-19.336 0.906,2.593 0.906,1.696 0.907,9.234 0.906,0.746 0.91,3.09 0.906,-2.648 0.907,-4.907 0.906,5.762 0.906,6.758 0.91,0.351 0.906,0.379 0.907,2.84 0.906,0.676 0.906,0.867 0.91,-0.625 0.907,-7.34 0.906,4.039 0.906,3.746 0.91,6.692 0.907,-2.223 0.906,-0.297 0.906,0.957 0.906,4.11 0.91,7.226 0.907,3.114 0.906,-0.301 0.906,-0.645 0.906,0.035 0.911,0.735 0.906,0.504 0.906,1.519 0.906,0.899 0.91,-1.774 0.907,0.184 0.906,0.211 0.906,-0.426 0.906,1.258 0.911,2.679 0.906,-2.046 0.906,0.703 0.906,6.238 0.907,3.191 0.91,0.403 0.906,-0.016 0.906,2.121 0.907,2.613"
           style="fill:none;stroke:#000000;stroke-width:0.640187;stroke-linecap:butt;stroke-linejoin:round;stroke-miterlimit:10;stroke-dasharray:none;stroke-opacity:0.4"
           id="path29" /></g></g><g
       id="g31"><g
         id="g33"
         clip-path="url(#clipPath37)"><path
           d="m 0,82.691 0.363,0.024 0.907,0.035 0.906,0.027 0.906,0.051 0.906,0.09 0.91,0.121 1.813,0.274 0.906,0.125 0.906,0.101 0.911,0.082 2.718,0.223 0.911,0.074 0.906,0.074 0.906,0.039 0.906,-0.019 0.907,-0.051 0.91,-0.043 0.906,0.004 0.906,0.047 0.906,0.074 0.907,0.07 0.91,0.039 0.906,-0.011 0.906,-0.039 0.907,-0.047 0.91,-0.028 0.906,-0.015 0.906,-0.02 0.906,-0.031 0.907,-0.047 0.91,-0.062 0.906,-0.071 0.906,-0.074 0.907,-0.055 0.906,-0.027 0.91,0.004 0.906,0.035 0.907,0.043 0.906,0.039 0.906,0.035 0.91,0.032 0.906,0.039 0.907,0.046 0.906,0.067 0.91,0.09 0.906,0.113 0.907,0.145 0.906,0.167 0.906,0.2 0.91,0.215 1.813,0.445 0.906,0.203 0.906,0.18 0.91,0.156 0.907,0.148 0.906,0.141 0.906,0.137 0.906,0.133 0.911,0.136 0.906,0.156 0.906,0.188 0.906,0.219 0.91,0.218 0.907,0.208 0.906,0.136 0.906,0.035 0.906,-0.074 0.911,-0.172 0.906,-0.254 0.906,-0.3 0.906,-0.309 0.907,-0.285 0.91,-0.254 0.906,-0.231 0.906,-0.218 0.907,-0.235 0.91,-0.265 0.906,-0.321 0.906,-0.402 0.906,-0.508 0.907,-0.636 0.91,-0.77 0.906,-0.875 0.906,-0.945 0.907,-0.961 0.906,-0.899 0.91,-0.761 0.906,-0.567 0.907,-0.32 0.906,-0.063 0.906,0.129 0.91,0.207 0.906,0.207 0.907,0.188 0.906,0.18 0.91,0.226 0.906,0.328 0.907,0.485 0.906,0.644 0.906,0.793 0.91,0.906 0.906,0.887 0.907,0.723 0.906,0.519 0.906,0.301 0.91,0.102 0.907,0.019 0.906,0.07 0.906,0.137 0.91,0.203 0.907,0.246 0.906,0.254 0.906,0.2 0.906,0.097 0.91,-0.078 0.907,-0.305 0.906,-0.504 0.906,-0.66 0.906,-0.765 0.911,-0.805 0.906,-0.789 0.906,-0.785 0.906,-0.817 0.907,-0.871 0.91,-0.902 0.906,-0.914 0.906,-0.902 0.907,-0.887 0.91,-0.86 0.906,-0.851 0.906,-0.863 0.906,-0.911 0.907,-1.054 0.91,-1.321 0.906,-1.687 0.906,-2.106 0.907,-2.543 0.906,-2.941 0.91,-3.289 0.906,-3.555 0.906,-3.691 0.907,-3.613 0.91,-3.114 0.906,-2.132 0.906,-0.832 0.907,0.23 0.906,0.887 0.91,1.222 0.906,1.473 0.907,1.707 0.906,1.84 0.906,1.859 0.91,1.762 0.906,1.512 0.907,1.144 0.906,0.821 0.906,0.589 0.91,0.469 0.907,0.539 0.906,0.832 0.906,1.278 0.91,1.628 0.907,1.84 0.906,2.039 0.906,2.239 0.906,2.406 0.91,2.379 0.907,2.117 0.906,1.676 0.906,1.25 0.906,0.906 0.911,0.625 0.906,0.418 0.906,0.27 0.906,0.16 0.91,0.086 0.907,0.105 0.906,0.223 0.906,0.433 0.906,0.68 0.911,0.969 0.906,1.269 0.906,1.543 0.906,1.77 0.907,1.902 0.91,1.934 0.906,1.89 0.906,1.86 0.907,1.863"
           style="fill:none;stroke:#2cb889;stroke-width:0.853583;stroke-linecap:butt;stroke-linejoin:round;stroke-miterlimit:10;stroke-dasharray:none;stroke-opacity:1"
           id="path39" /></g></g><text
       style="font-variant:normal;font-weight:normal;font-size:5.6px;font-family:'Roboto Condensed';-inkscape-font-specification:RobotoCondensed-Regular;writing-mode:lr-tb;fill:#4d4d4d;fill-opacity:1;fill-rule:nonzero;stroke:none"
       id="text53"
       x="14.691406"
       y="100.61328"><tspan
         x="14.691406 17.452206 18.925007 21.685806"
         y="100.61328"
         sodipodi:role="line"
         id="tspan43">0.00</tspan><tspan
         x="14.691406 17.452206 18.925007 21.685806"
         y="82.472656"
         sodipodi:role="line"
         id="tspan45">0.04</tspan><tspan
         x="14.691406 17.452206 18.925007 21.685806"
         y="64.332031"
         sodipodi:role="line"
         id="tspan47">0.08</tspan><tspan
         x="14.691406 17.452206 18.925007 21.685806"
         y="46.19141"
         sodipodi:role="line"
         id="tspan49">0.12</tspan><tspan
         x="14.691406 17.452206 18.925007 21.685806"
         y="28.046881"
         sodipodi:role="line"
         id="tspan51">0.16</tspan></text><path
       d="m 26.648,98.625 h 2.739"
       style="fill:none;stroke:#4d4d4d;stroke-width:0.213396;stroke-linecap:butt;stroke-linejoin:round;stroke-miterlimit:10;stroke-dasharray:none;stroke-opacity:1"
       id="path55" /><path
       d="m 26.648,80.484 h 2.739"
       style="fill:none;stroke:#4d4d4d;stroke-width:0.213396;stroke-linecap:butt;stroke-linejoin:round;stroke-miterlimit:10;stroke-dasharray:none;stroke-opacity:1"
       id="path57" /><path
       d="m 26.648,62.34 h 2.739"
       style="fill:none;stroke:#4d4d4d;stroke-width:0.213396;stroke-linecap:butt;stroke-linejoin:round;stroke-miterlimit:10;stroke-dasharray:none;stroke-opacity:1"
       id="path59" /><path
       d="m 26.648,44.199 h 2.739"
       style="fill:none;stroke:#4d4d4d;stroke-width:0.213396;stroke-linecap:butt;stroke-linejoin:round;stroke-miterlimit:10;stroke-dasharray:none;stroke-opacity:1"
       id="path61" /><path
       d="m 26.648,26.059 h 2.739"
       style="fill:none;stroke:#4d4d4d;stroke-width:0.213396;stroke-linecap:butt;stroke-linejoin:round;stroke-miterlimit:10;stroke-dasharray:none;stroke-opacity:1"
       id="path63" /><path
       d="M 29.387,101.363 V 98.625"
       style="fill:none;stroke:#4d4d4d;stroke-width:0.213396;stroke-linecap:butt;stroke-linejoin:round;stroke-miterlimit:10;stroke-dasharray:none;stroke-opacity:1"
       id="path65" /><path
       d="M 47.531,101.363 V 98.625"
       style="fill:none;stroke:#4d4d4d;stroke-width:0.213396;stroke-linecap:butt;stroke-linejoin:round;stroke-miterlimit:10;stroke-dasharray:none;stroke-opacity:1"
       id="path67" /><path
       d="M 65.672,101.363 V 98.625"
       style="fill:none;stroke:#4d4d4d;stroke-width:0.213396;stroke-linecap:butt;stroke-linejoin:round;stroke-miterlimit:10;stroke-dasharray:none;stroke-opacity:1"
       id="path69" /><path
       d="M 83.813,101.363 V 98.625"
       style="fill:none;stroke:#4d4d4d;stroke-width:0.213396;stroke-linecap:butt;stroke-linejoin:round;stroke-miterlimit:10;stroke-dasharray:none;stroke-opacity:1"
       id="path71" /><path
       d="M 101.953,101.363 V 98.625"
       style="fill:none;stroke:#4d4d4d;stroke-width:0.213396;stroke-linecap:butt;stroke-linejoin:round;stroke-miterlimit:10;stroke-dasharray:none;stroke-opacity:1"
       id="path73" /><path
       d="M 120.098,101.363 V 98.625"
       style="fill:none;stroke:#4d4d4d;stroke-width:0.213396;stroke-linecap:butt;stroke-linejoin:round;stroke-miterlimit:10;stroke-dasharray:none;stroke-opacity:1"
       id="path75" /><path
       d="M 138.238,101.363 V 98.625"
       style="fill:none;stroke:#4d4d4d;stroke-width:0.213396;stroke-linecap:butt;stroke-linejoin:round;stroke-miterlimit:10;stroke-dasharray:none;stroke-opacity:1"
       id="path77" /><path
       d="M 156.379,101.363 V 98.625"
       style="fill:none;stroke:#4d4d4d;stroke-width:0.213396;stroke-linecap:butt;stroke-linejoin:round;stroke-miterlimit:10;stroke-dasharray:none;stroke-opacity:1"
       id="path79" /><path
       d="M 174.52,101.363 V 98.625"
       style="fill:none;stroke:#4d4d4d;stroke-width:0.213396;stroke-linecap:butt;stroke-linejoin:round;stroke-miterlimit:10;stroke-dasharray:none;stroke-opacity:1"
       id="path81" /><text
       style="font-variant:normal;font-weight:normal;font-size:5.6px;font-family:'Roboto Condensed';-inkscape-font-specification:RobotoCondensed-Regular;writing-mode:lr-tb;fill:#4d4d4d;fill-opacity:1;fill-rule:nonzero;stroke:none"
       id="text85"
       x="23.859375"
       y="107.53516"><tspan
         x="23.859375 26.620174 29.380974 32.141777 44.265778 45.240173 48.000977 60.124973 62.885777 65.646576 68.407379 80.525772 81.500175 84.260971 98.652977 99.627373 102.38818 116.79137 117.76578 120.52657 134.98438 135.95877 138.71957 150.84357 153.60437 156.36517 159.12598 171.24437 172.21878 174.97957"
         y="107.53516"
         sodipodi:role="line"
         id="tspan83">1860'801900'20'40'60'802000'20</tspan></text><text
       transform="rotate(-90)"
       style="font-variant:normal;font-weight:normal;font-size:7px;font-family:'Roboto Condensed';-inkscape-font-specification:RobotoCondensed-Regular;writing-mode:lr-tb;fill:#000000;fill-opacity:1;fill-rule:nonzero;stroke:none"
       id="text93"
       x="-100.75781"
       y="10.457031"><tspan
         x="-100.75781 -97.432816 -93.925812 -90.544815 -87.100815 -85.364815 -83.299812 -80.023811 -77.895813 -72.631813 -71.028816 -69.425812 -66.044815 -63.979813 -60.703812 -58.575813 -55.299812 -52.114811 -50.049812 -48.446812 -46.318813 -42.965813 -40.900814 -37.624813 -34.439812 -32.836815 -30.645813 -26.221809"
         y="10.457031"
         sodipodi:role="line"
         id="tspan91">Long-term interest rates (%)</tspan></text><g
       id="g187"
       transform="translate(0.04562091,99.02447)"><g
         id="g189"
         clip-path="url(#clipPath193)"><path
           d="m 12.152,53.844 0.911,3.773 0.906,1.196 0.906,-0.973 0.906,0.484 0.907,-3.226 0.91,-7.059 0.906,2.231 0.906,-2.551 0.906,4.91 0.907,1.418 0.91,2.433 0.906,-1.921 0.906,0.55 0.907,-1.867 0.91,2.895 0.906,-1.91 0.906,-1.93 0.906,0.234 0.907,-1.383 0.91,2.442 0.906,2.512 0.906,0.023 0.907,-3.234 0.906,0.605 0.91,-0.984 0.906,-0.774 0.907,1.141 0.906,-1.992 0.906,-0.735 0.91,1.407 0.906,2.148 0.907,-1.727 0.906,-0.929 0.91,-1.426 0.906,2.328 0.907,-1.023 0.906,-0.535 0.906,-1.676 0.91,2.199 0.907,1.305 0.906,2.015 0.906,-1.14 0.906,0.734 0.91,-1.199 0.907,-1.328 0.906,-1.09 0.906,-0.227 0.906,1.078 0.911,-3.214 0.906,-1.727 0.906,2.785 0.906,1.371 0.91,3.684 0.907,-3.406 0.906,2.617 0.906,-1.617 0.906,-0.481 0.911,-2.043 0.906,-0.894 0.906,3.547 0.906,1.027 0.907,1.59 0.91,-1.438 0.906,1.387 0.906,0.496 0.907,-0.473 0.91,-0.812 0.906,-1.442 0.906,0.61 0.906,0.594 0.907,0.668 0.91,-0.641 0.906,-0.543 0.906,-2 0.907,1.867 0.906,1.555 0.91,-0.18 0.906,0.567 0.907,2.273 0.906,1.746 0.906,-2.973 0.91,1.469 0.906,-0.914 0.907,-0.594 0.906,2.446 0.91,-1.043 0.906,-0.703 0.907,-2.52 0.906,4.387 0.906,-0.957 0.91,1.59 0.906,0.539 0.907,-0.243 0.906,-0.91 0.906,1.965 0.91,-0.426 0.907,-0.25 0.906,0.055 0.906,-4.121 0.91,2.172 0.907,3.086 0.906,0.414 0.906,-0.254 0.906,0.262 0.91,1.988 0.907,-0.598 0.906,0.082 0.906,-2.617 0.906,-0.441 0.911,-2.012 0.906,2.258 0.906,1.168 0.906,-0.567 0.907,-0.168 0.91,0.399 0.906,-0.539 0.906,0.484 0.907,0.606 0.91,0.589 0.906,-1.511 0.906,-0.242 0.906,-0.571 0.907,1.887 0.91,-1.547 0.906,0.445 0.906,1.688 0.907,-0.766 0.906,-1.043 0.91,1.047 0.906,1.156 0.906,-0.304 0.907,0.871 0.91,0.621 0.906,0.281 0.906,0.254 0.907,1.469 0.906,-0.32 0.91,0.011 0.906,0.528 0.907,0.882 0.906,0.039 0.906,1.317 0.91,3.133 0.906,-5.395 0.907,2.961 0.906,0.926 0.906,0.601 0.91,0.442 0.907,0.347 0.906,0.793 0.906,2.168 0.91,-0.378 0.907,1.332 0.906,0.988 0.906,0.918 0.906,1.484 0.91,1.125 0.907,0.528 0.906,1.628 0.906,1.899 0.906,0.215 0.911,1.164 0.906,0.535 0.906,0.859 0.906,1.032 0.91,0.246 0.907,1.675 0.906,1.653 0.906,0.363 0.906,2.039 0.911,0.609 0.906,-0.871 0.906,0.52 0.906,-0.172 0.907,-0.406 0.91,0.82 0.906,-0.23"
           style="fill:none;stroke:#000000;stroke-width:0.640187;stroke-linecap:butt;stroke-linejoin:round;stroke-miterlimit:10;stroke-dasharray:none;stroke-opacity:0.298039"
           id="path195" /></g></g><g
       id="g197"
       transform="translate(0.04562091,99.02447)"><g
         id="g199"
         clip-path="url(#clipPath203)"><path
           d="m 12.152,44.289 0.911,-3.394 0.906,-1.141 0.906,-0.727 0.906,1.274 0.907,0.887 0.91,-1.282 0.906,4.301 0.906,-2.48 0.906,3.253 0.907,-1.742 0.91,-0.547 0.906,-3.179 0.906,0.883 0.907,-1.942 0.91,5.527 0.906,0.391 0.906,-0.926 0.906,0.832 0.907,-1.718 0.91,0.07 0.906,0.113 0.906,-0.547 0.907,-3.031 0.906,0.695 0.91,0.821 0.906,1.687 0.907,2.383 0.906,-2.137 0.906,-0.855 0.91,-0.098 0.906,-0.203 0.907,-2.551 0.906,-0.269 0.91,-1.297 0.906,3.617 0.907,0.461 0.906,-0.309 0.906,-2.004 0.91,2.094 0.907,0.063 0.906,0.476 0.906,-1.769 0.906,0.445 0.91,-1.238 0.907,0.117 0.906,1.359 0.906,0.215 0.906,1.231 0.911,-3.008 0.906,-3.363 0.906,0.773 0.906,1.641 0.91,4.078 0.907,-3.41 0.906,4.078 0.906,-0.492 0.906,-0.114 0.911,-2.465 0.906,-1.015 0.906,1.926 0.906,-0.25 0.907,1.336 0.91,-1.18 0.906,1.23 0.906,0.039 0.907,-0.148 0.91,0.394 0.906,-1.953 0.906,1.578 0.906,0.915 0.907,1.39 0.91,-0.547 0.906,-1.183 0.906,-3.086 0.907,1.793 0.906,-0.723 0.91,0.934 0.906,-0.098 0.907,4.016 0.906,0.898 0.906,-0.828 0.91,2.281 0.906,-3.461 0.907,-0.074 0.906,1.652 0.91,-1.882 0.906,2.644 0.907,-3.926 0.906,3.059 0.906,0.078 0.91,0.277 0.906,-0.113 0.907,0.719 0.906,0.484 0.906,-0.773 0.91,0.148 0.907,1.746 0.906,-2.031 0.906,-3.082 0.91,4.918 0.907,2.914 0.906,-1.019 0.906,0.085 0.906,-0.179 0.91,0.152 0.907,-1.391 0.906,2.297 0.906,-2.425 0.906,0.66 0.911,-2.899 0.906,3.032 0.906,-0.918 0.906,-0.403 0.907,-0.168 0.91,0.114 0.906,-0.278 0.906,0.301 0.907,0.246 0.91,0.426 0.906,-0.297 0.906,-0.434 0.906,-1.058 0.907,2.648 0.91,-0.648 0.906,-0.406 0.906,0.523 0.907,-1.125 0.906,-0.848 0.91,-0.004 0.906,1.606 0.906,-0.836 0.907,1.449 0.91,0.801 0.906,0.375 0.906,-0.676 0.907,1.02 0.906,0.215 0.91,0.453 0.906,1.293 0.907,0.168 0.906,0.726 0.906,-0.101 0.91,1.234 0.906,-1.301 0.907,1.457 0.906,0.985 0.906,1.097 0.91,2.039 0.907,-2.769 0.906,1.578 0.906,0.988 0.91,0.375 0.907,0.969 0.906,0.137 0.906,0.621 0.906,1.812 0.91,0.246 0.907,1.301 0.906,2.215 0.906,1.051 0.906,1.562 0.911,1.168 0.906,0.926 0.906,1.609 0.906,0.879 0.91,1.614 0.907,-0.227 0.906,1.84 0.906,-0.242 0.906,0.062 0.911,1.985 0.906,0.496 0.906,0.371 0.906,0.508 0.907,0.73 0.91,0.309 0.906,-0.871"
           style="fill:none;stroke:#000000;stroke-width:0.640187;stroke-linecap:butt;stroke-linejoin:round;stroke-miterlimit:10;stroke-dasharray:none;stroke-opacity:0.298039"
           id="path205" /></g></g><g
       id="g207"
       transform="translate(0.04562091,99.02447)"><g
         id="g209"
         clip-path="url(#clipPath213)"><path
           d="m 12.152,31.371 0.911,1.16 0.906,1.192 0.906,-1.254 0.906,0.469 0.907,-2.481 0.91,-6.019 0.906,3.363 0.906,-0.793 0.906,3.363 0.907,1.102 0.91,1.402 0.906,-3.277 0.906,1.226 0.907,-2.625 0.91,4.867 0.906,-2.644 0.906,-1.094 0.906,1.223 0.907,-1.942 0.91,1.907 0.906,2.363 0.906,0.125 0.907,-2.844 0.906,0.043 0.91,-0.601 0.906,-0.782 0.907,2.082 0.906,-2.078 0.906,-0.656 0.91,2.195 0.906,2.16 0.907,-2.035 0.906,0.203 0.91,-2.789 0.906,2.594 0.907,-0.625 0.906,-1.312 0.906,-2.465 0.91,3.191 0.907,0.703 0.906,1.383 0.906,-1.906 0.906,0.754 0.91,-1.664 0.907,-0.746 0.906,0.492 0.906,0.554 0.906,1.52 0.911,-2.656 0.906,-2.074 0.906,2.562 0.906,2.102 0.91,3.414 0.907,-4.825 0.906,4.067 0.906,-2.317 0.906,0.086 0.911,-2.046 0.906,-0.602 0.906,2.793 0.906,0.281 0.907,0.957 0.91,-1.929 0.906,0.718 0.906,-0.679 0.907,-0.852 0.91,0.438 0.906,-0.86 0.906,2.418 0.906,-0.781 0.907,-1.129 0.91,-1.371 0.906,0.398 0.906,-5.593 0.907,4.039 0.906,2.535 0.91,1.226 0.906,-4.281 0.907,6.168 0.906,0.992 0.906,-4.297 0.91,3.575 0.906,-2.547 0.907,-1.086 0.906,2.297 0.91,-0.61 0.906,1.461 0.907,-4.57 0.906,5.348 0.906,-1.493 0.91,-0.867 0.906,0.383 0.907,2.129 0.906,-2.629 0.906,0.437 0.91,0.821 0.907,1.183 0.906,-1.722 0.906,-2.164 0.91,4.164 0.907,3.699 0.906,-2.352 0.906,0.938 0.906,-0.336 0.91,1.07 0.907,0.141 0.906,2.484 0.906,-4.004 0.906,-0.293 0.911,-2.203 0.906,3.153 0.906,-0.223 0.906,0.102 0.907,-1.266 0.91,0.156 0.906,0.797 0.906,-0.602 0.907,0.743 0.91,0.273 0.906,-1.422 0.906,0.496 0.906,-0.371 0.907,2.442 0.91,-0.426 0.906,-1.028 0.906,1.993 0.907,-2.953 0.906,0.558 0.91,0.547 0.906,1.066 0.906,-1.289 0.907,0.047 0.91,1.356 0.906,-0.825 0.906,-0.234 0.907,1.395 0.906,-0.176 0.91,0.668 0.906,0.941 0.907,0.754 0.906,0.168 0.906,0.395 0.91,0.988 0.906,-0.785 0.907,1.293 0.906,0.676 0.906,0.722 0.91,0.184 0.907,0.765 0.906,0.961 0.906,0.996 0.91,-0.125 0.907,3.364 0.906,-4.395 0.906,2.117 0.906,1.606 0.91,0.644 0.907,0.082 0.906,1.727 0.906,0.566 0.906,0.95 0.911,1.414 0.906,1.504 0.906,2.132 0.906,0.512 0.91,0.988 0.907,1.063 0.906,1.715 0.906,0.394 0.906,2.239 0.911,-0.946 0.906,0.469 0.906,0.703 0.906,-0.949 0.907,0.902 0.91,0.645 0.906,0.414"
           style="fill:none;stroke:#000000;stroke-width:0.640187;stroke-linecap:butt;stroke-linejoin:round;stroke-miterlimit:10;stroke-dasharray:none;stroke-opacity:0.298039"
           id="path215" /></g></g><g
       id="g219"
       clip-path="url(#clipPath223)"
       transform="translate(0.04562091,99.02447)"
       style="stroke:#c27640;stroke-opacity:1"><path
         d="m 12.152,54.836 0.911,2.527 0.906,0.321 0.906,-0.993 0.906,-1.445 0.907,-1.441 0.91,-1.274 0.906,-0.961 0.906,-0.488 0.906,0.125 0.907,0.699 0.91,1.024 0.906,1.082 0.906,0.883 0.907,0.421 0.91,-0.136 0.906,-0.52 0.906,-0.691 0.906,-0.664 0.907,-0.43 0.91,-0.07 0.906,0.183 0.906,0.293 0.907,0.27 0.906,0.101 0.91,-0.172 0.906,-0.386 0.907,-0.516 0.906,-0.547 0.906,-0.488 0.91,-0.344 0.906,-0.199 0.907,-0.094 0.906,-0.023 0.91,0.012 0.906,0.015 0.907,0.024 0.906,0.058 0.906,0.133 0.91,0.227 0.907,0.351 0.906,0.434 0.906,0.394 0.906,0.231 0.91,-0.051 0.907,-0.453 0.906,-0.844 0.906,-1.027 0.906,-0.985 0.911,-0.718 0.906,-0.231 0.906,0.363 0.906,0.758 0.91,0.922 0.907,0.859 0.906,0.555 0.906,0.106 0.906,-0.227 0.911,-0.367 0.906,-0.317 0.906,-0.074 0.906,0.321 0.907,0.644 0.91,0.809 0.906,0.832 0.906,0.695 0.907,0.418 0.91,0.141 0.906,-0.067 0.906,-0.211 1.813,-0.547 0.91,-0.211 0.906,-0.097 0.906,0.058 0.907,0.266 0.906,0.523 0.91,0.75 0.906,0.86 0.907,0.832 0.906,0.687 0.906,0.411 0.91,0.078 0.906,-0.137 0.907,-0.231 0.906,-0.199 0.91,-0.043 0.906,0.196 0.907,0.367 0.906,0.445 0.906,0.426 0.91,0.316 0.906,0.125 0.907,-0.035 0.906,-0.133 0.906,-0.168 0.91,-0.14 0.907,-0.063 0.906,0.039 0.906,0.145 0.91,0.246 0.907,0.355 0.906,0.454 0.906,0.511 0.906,0.485 0.91,0.363 0.907,0.16 0.906,-0.125 0.906,-0.394 0.906,-0.543 0.911,-0.551 0.906,-0.434 0.906,-0.183 0.906,0.117 0.907,0.316 0.91,0.403 0.906,0.371 0.906,0.226 0.907,0.012 0.91,-0.149 0.906,-0.234 0.906,-0.25 0.906,-0.191 0.907,-0.071 0.91,0.051 0.906,0.152 0.906,0.247 0.907,0.32 0.906,0.375 0.91,0.418 0.906,0.445 0.906,0.453 0.907,0.446 0.91,0.425 0.906,0.407 0.906,0.398 0.907,0.406 0.906,0.43 0.91,0.465 0.906,0.496 1.813,1.039 0.906,0.508 0.91,0.48 0.906,0.45 0.907,0.445 0.906,0.469 0.906,0.519 0.91,0.594 0.907,0.687 0.906,0.786 0.906,0.875 0.91,0.964 0.907,1.055 0.906,1.133 0.906,1.183 0.906,1.196 0.91,1.176 0.907,1.113 0.906,1.023 0.906,0.949 0.906,0.899 0.911,0.879 0.906,0.887 0.906,0.918 0.906,0.953 0.91,0.98 0.907,1.004 0.906,1.012 0.906,1.015 0.906,0.961 0.911,0.817 0.906,0.574 0.906,0.246 0.906,-0.176 0.907,-0.457 0.91,-0.297 0.906,0.332"
         style="fill:none;stroke:#c27640;stroke-width:0.853583;stroke-linecap:butt;stroke-linejoin:round;stroke-miterlimit:10;stroke-dasharray:none;stroke-opacity:1"
         id="path225" /></g><g
       id="g229"
       clip-path="url(#clipPath233)"
       transform="translate(0.04562091,99.02447)"
       style="stroke:#c27640;stroke-opacity:1"><path
         d="m 12.152,42.785 0.911,-0.98 0.906,-0.922 0.906,-0.606 0.906,-0.039 0.907,0.492 0.91,0.786 0.906,0.832 0.906,0.632 0.906,0.2 0.907,-0.266 0.91,-0.535 0.906,-0.594 0.906,-0.433 0.907,-0.075 0.91,0.364 0.906,0.613 0.906,0.668 0.906,0.516 0.907,0.164 0.91,-0.297 0.906,-0.602 0.906,-0.719 0.907,-0.644 0.906,-0.379 0.91,0.023 0.906,0.313 0.907,0.426 0.906,0.363 0.906,0.117 0.91,-0.265 0.906,-0.586 0.907,-0.731 0.906,-0.715 0.91,-0.535 0.906,-0.199 0.907,0.129 0.906,0.355 0.906,0.469 0.91,0.477 0.907,0.375 0.906,0.214 0.906,0.055 0.906,-0.117 0.91,-0.293 0.907,-0.469 0.906,-0.609 0.906,-0.637 0.906,-0.551 0.911,-0.347 0.906,-0.028 0.906,0.336 0.906,0.586 0.91,0.692 0.907,0.66 0.906,0.488 0.906,0.219 0.906,-0.008 0.911,-0.16 0.906,-0.223 0.906,-0.215 0.906,-0.129 0.907,-0.019 0.91,0.101 0.906,0.239 0.906,0.386 0.907,0.54 0.91,0.621 0.906,0.586 0.906,0.433 0.906,0.164 0.907,-0.207 0.91,-0.523 0.906,-0.641 0.906,-0.547 0.907,-0.246 0.906,0.25 0.91,0.774 0.906,1.074 0.907,1.144 0.906,0.981 0.906,0.586 0.91,0.082 0.906,-0.27 0.907,-0.441 0.906,-0.434 0.91,-0.25 0.906,0.059 0.907,0.289 1.812,0.812 0.91,0.297 0.906,0.094 0.907,-0.051 0.906,-0.105 0.906,-0.067 0.91,0.067 0.907,0.277 0.906,0.469 0.906,0.586 0.91,0.629 0.907,0.59 0.906,0.484 0.906,0.34 0.906,0.199 0.91,0.051 0.907,-0.102 0.906,-0.25 0.906,-0.375 0.906,-0.433 0.911,-0.43 0.906,-0.359 0.906,-0.219 0.906,-0.063 0.907,0.063 0.91,0.129 0.906,0.152 0.906,0.125 0.907,0.063 0.91,0.011 0.906,-0.031 0.906,-0.051 0.906,-0.062 0.907,-0.059 0.91,-0.047 0.906,-0.039 0.906,-0.027 0.907,-0.016 0.906,0.004 0.91,0.043 0.906,0.102 0.906,0.183 0.907,0.293 0.91,0.422 0.906,0.531 0.906,0.598 0.907,0.617 0.906,0.594 0.91,0.527 0.906,0.453 0.907,0.411 0.906,0.406 0.906,0.437 0.91,0.5 0.906,0.578 0.907,0.622 0.906,0.628 0.906,0.61 0.91,0.551 0.907,0.484 0.906,0.449 0.906,0.461 0.91,0.512 0.907,0.605 0.906,0.731 0.906,0.863 0.906,0.984 0.91,1.106 0.907,1.215 0.906,1.316 0.906,1.379 0.906,1.395 0.911,1.359 0.906,1.277 0.906,1.153 0.906,1.023 0.91,0.926 0.907,0.851 0.906,0.805 0.906,0.785 0.906,0.766 0.911,0.726 0.906,0.672 0.906,0.586 0.906,0.489 0.907,0.375 0.91,0.246 0.906,0.117"
         style="fill:none;stroke:#c27640;stroke-width:0.853583;stroke-linecap:butt;stroke-linejoin:round;stroke-miterlimit:10;stroke-dasharray:none;stroke-opacity:1"
         id="path235" /></g><g
       id="g237"
       transform="translate(0.04562091,99.02447)"><g
         id="g239"
         clip-path="url(#clipPath243)"><path
           d="m 12.152,32.57 0.911,1.016 0.906,-0.918 0.906,-1.73 0.906,-1.454 0.907,-0.804 0.91,-0.289 0.906,0.078 0.906,0.297 0.906,0.367 0.907,0.347 0.91,0.325 0.906,0.277 0.906,0.227 0.907,0.164 0.91,0.093 0.906,0.039 0.906,-0.003 0.906,-0.036 0.907,-0.054 0.91,-0.067 0.906,-0.066 0.906,-0.074 1.813,-0.141 0.91,-0.062 0.906,-0.059 1.813,-0.109 0.906,-0.051 0.91,-0.051 0.906,-0.055 0.907,-0.058 0.906,-0.067 0.91,-0.074 0.906,-0.086 0.907,-0.09 0.906,-0.078 0.906,-0.058 0.91,-0.028 0.907,0.024 0.906,0.051 0.906,0.046 0.906,-0.004 0.91,-0.089 0.907,-0.215 0.906,-0.328 0.906,-0.344 0.906,-0.266 0.911,-0.086 0.906,0.192 0.906,0.504 0.906,0.695 0.91,0.742 0.907,0.649 0.906,0.414 0.906,0.082 0.906,-0.172 0.911,-0.313 0.906,-0.34 0.906,-0.246 0.906,-0.062 0.907,0.09 0.91,0.176 0.906,0.179 0.906,0.11 0.907,-0.024 0.91,-0.176 0.906,-0.316 0.906,-0.438 0.906,-0.543 0.907,-0.628 0.91,-0.649 0.906,-0.551 0.906,-0.336 0.907,-0.003 0.906,0.445 0.91,0.867 0.906,1.086 0.907,1.09 0.906,0.875 0.906,0.441 0.91,-0.078 0.906,-0.43 0.907,-0.589 0.906,-0.555 0.91,-0.317 0.906,0.04 0.907,0.296 0.906,0.422 0.906,0.403 0.91,0.238 0.906,-0.027 0.907,-0.223 0.906,-0.285 0.906,-0.219 0.91,-0.027 0.907,0.289 0.906,0.566 0.906,0.762 0.91,0.855 0.907,0.86 0.906,0.769 0.906,0.629 0.906,0.461 0.91,0.273 0.907,0.059 0.906,-0.172 0.906,-0.371 0.906,-0.48 0.911,-0.493 0.906,-0.402 0.906,-0.226 0.906,-0.004 0.907,0.156 0.91,0.238 0.906,0.254 0.906,0.195 0.907,0.09 0.91,0.02 0.906,-0.012 0.906,0.008 0.906,0.066 0.907,0.157 0.91,0.214 0.906,0.231 0.906,0.199 0.907,0.117 0.906,-0.004 0.91,-0.09 0.906,-0.121 0.906,-0.101 0.907,-0.024 0.91,0.114 0.906,0.25 0.906,0.355 0.907,0.438 0.906,0.492 0.91,0.512 0.906,0.523 0.907,0.527 0.906,0.532 0.906,0.523 0.91,0.523 0.906,0.516 0.907,0.52 0.906,0.531 0.906,0.551 0.91,0.578 0.907,0.609 0.906,0.629 0.906,0.633 0.91,0.621 0.907,0.594 1.812,1.125 0.906,0.601 0.91,0.676 0.907,0.797 0.906,0.945 0.906,1.082 0.906,1.188 0.911,1.258 0.906,1.304 0.906,1.317 0.906,1.3 0.91,1.254 0.907,1.172 0.906,1.071 0.906,0.929 0.906,0.778 0.911,0.617 0.906,0.461 0.906,0.289 0.906,0.125 0.907,0.043 0.91,0.176 0.906,0.519"
           style="fill:none;stroke:#c27640;stroke-width:0.853583;stroke-linecap:butt;stroke-linejoin:round;stroke-miterlimit:10;stroke-dasharray:none;stroke-opacity:1"
           id="path245" /></g></g><g
       id="g247"
       transform="translate(0.04562091,99.02447)"><text
         transform="translate(14.691406,100.61328)"
         style="font-variant:normal;font-weight:normal;font-size:5.6px;font-family:'Roboto Condensed';-inkscape-font-specification:RobotoCondensed-Regular;writing-mode:lr-tb;fill:#4d4d4d;fill-opacity:1;fill-rule:nonzero;stroke:none"
         id="text257"><tspan
           x="0 2.7607999 4.2336001 6.9944"
           y="0"
           sodipodi:role="line"
           id="tspan249">0.01</tspan><tspan
           x="0 2.7607999 4.2336001 6.9944"
           y="-32.082031"
           sodipodi:role="line"
           id="tspan251">0.03</tspan><tspan
           x="0 2.7607999 4.2336001 6.9944"
           y="-52.324215"
           sodipodi:role="line"
           id="tspan253">0.06</tspan><tspan
           x="0 2.7607999 4.2336001 6.9944"
           y="-64.164062"
           sodipodi:role="line"
           id="tspan255">0.09</tspan></text><path
         d="m 26.648,98.625 h 2.739"
         style="fill:none;stroke:#4d4d4d;stroke-width:0.213396;stroke-linecap:butt;stroke-linejoin:round;stroke-miterlimit:10;stroke-dasharray:none;stroke-opacity:1"
         id="path259" /><path
         d="m 26.648,66.543 h 2.739"
         style="fill:none;stroke:#4d4d4d;stroke-width:0.213396;stroke-linecap:butt;stroke-linejoin:round;stroke-miterlimit:10;stroke-dasharray:none;stroke-opacity:1"
         id="path261" /><path
         d="m 26.648,46.301 h 2.739"
         style="fill:none;stroke:#4d4d4d;stroke-width:0.213396;stroke-linecap:butt;stroke-linejoin:round;stroke-miterlimit:10;stroke-dasharray:none;stroke-opacity:1"
         id="path263" /><path
         d="m 26.648,34.461 h 2.739"
         style="fill:none;stroke:#4d4d4d;stroke-width:0.213396;stroke-linecap:butt;stroke-linejoin:round;stroke-miterlimit:10;stroke-dasharray:none;stroke-opacity:1"
         id="path265" /><path
         d="M 29.387,101.363 V 98.625"
         style="fill:none;stroke:#4d4d4d;stroke-width:0.213396;stroke-linecap:butt;stroke-linejoin:round;stroke-miterlimit:10;stroke-dasharray:none;stroke-opacity:1"
         id="path267" /><path
         d="M 47.531,101.363 V 98.625"
         style="fill:none;stroke:#4d4d4d;stroke-width:0.213396;stroke-linecap:butt;stroke-linejoin:round;stroke-miterlimit:10;stroke-dasharray:none;stroke-opacity:1"
         id="path269" /><path
         d="M 65.672,101.363 V 98.625"
         style="fill:none;stroke:#4d4d4d;stroke-width:0.213396;stroke-linecap:butt;stroke-linejoin:round;stroke-miterlimit:10;stroke-dasharray:none;stroke-opacity:1"
         id="path271" /><path
         d="M 83.813,101.363 V 98.625"
         style="fill:none;stroke:#4d4d4d;stroke-width:0.213396;stroke-linecap:butt;stroke-linejoin:round;stroke-miterlimit:10;stroke-dasharray:none;stroke-opacity:1"
         id="path273" /><path
         d="M 101.953,101.363 V 98.625"
         style="fill:none;stroke:#4d4d4d;stroke-width:0.213396;stroke-linecap:butt;stroke-linejoin:round;stroke-miterlimit:10;stroke-dasharray:none;stroke-opacity:1"
         id="path275" /><path
         d="M 120.098,101.363 V 98.625"
         style="fill:none;stroke:#4d4d4d;stroke-width:0.213396;stroke-linecap:butt;stroke-linejoin:round;stroke-miterlimit:10;stroke-dasharray:none;stroke-opacity:1"
         id="path277" /><path
         d="M 138.238,101.363 V 98.625"
         style="fill:none;stroke:#4d4d4d;stroke-width:0.213396;stroke-linecap:butt;stroke-linejoin:round;stroke-miterlimit:10;stroke-dasharray:none;stroke-opacity:1"
         id="path279" /><path
         d="M 156.379,101.363 V 98.625"
         style="fill:none;stroke:#4d4d4d;stroke-width:0.213396;stroke-linecap:butt;stroke-linejoin:round;stroke-miterlimit:10;stroke-dasharray:none;stroke-opacity:1"
         id="path281" /><path
         d="M 174.52,101.363 V 98.625"
         style="fill:none;stroke:#4d4d4d;stroke-width:0.213396;stroke-linecap:butt;stroke-linejoin:round;stroke-miterlimit:10;stroke-dasharray:none;stroke-opacity:1"
         id="path283" /><text
         transform="translate(23.859375,107.53516)"
         style="font-variant:normal;font-weight:normal;font-size:5.6px;font-family:'Roboto Condensed';-inkscape-font-specification:RobotoCondensed-Regular;writing-mode:lr-tb;fill:#4d4d4d;fill-opacity:1;fill-rule:nonzero;stroke:none"
         id="text287"><tspan
           x="0 2.7607999 5.5215998 8.2824001 20.406401 21.3808 24.1416 36.265598 39.026402 41.787201 44.548 56.666401 57.6408 60.4016 74.793602 75.767998 78.528801 92.931999 93.906403 96.667198 111.125 112.0994 114.8602 126.9842 129.745 132.5058 135.2666 147.38499 148.35941 151.12019"
           y="0"
           sodipodi:role="line"
           id="tspan285">1860'801900'20'40'60'802000'20</tspan></text><text
         transform="translate(95.738281,116.44922)"
         style="font-variant:normal;font-weight:normal;font-size:7px;font-family:'Roboto Condensed';-inkscape-font-specification:RobotoCondensed-Regular;writing-mode:lr-tb;fill:#000000;fill-opacity:1;fill-rule:nonzero;stroke:none"
         id="text291"><tspan
           x="0 3.668 6.9439998 10.297"
           y="0"
           sodipodi:role="line"
           id="tspan289">Year</tspan></text><text
         transform="rotate(-90,47.970703,37.513672)"
         style="font-variant:normal;font-weight:normal;font-size:7px;font-family:'Roboto Condensed';-inkscape-font-specification:RobotoCondensed-Regular;writing-mode:lr-tb;fill:#000000;fill-opacity:1;fill-rule:nonzero;stroke:none"
         id="text295"><tspan
           x="0 3.99 7.2659998 10.619 12.684 16.058001 17.660999 19.789 23.142 25.207001 28.483 31.667999 33.271 35.462002 37.064999 40.571999 44.015999"
           y="0"
           sodipodi:role="line"
           id="tspan293">Death rates (log)</tspan></text></g><text
       xml:space="preserve"
       style="font-size:8px;line-height:1.25;font-family:'Roboto Condensed';-inkscape-font-specification:'Roboto Condensed,  Italic';text-align:center;letter-spacing:0px;word-spacing:0px;text-anchor:middle;fill:#c27640;fill-opacity:1;stroke-width:0.75;font-weight:normal;font-style:italic;font-stretch:normal;font-variant:normal"
       x="177.08186"
       y="158.58682"
       id="text2077"><tspan
         sodipodi:role="line"
         id="tspan2075"
         style="font-size:8px;fill:#c27640;fill-opacity:1;stroke-width:0.75;-inkscape-font-specification:'Roboto Condensed,  Italic';font-family:'Roboto Condensed';font-weight:normal;font-style:italic;font-stretch:normal;font-variant:normal"
         x="177.08186"
         y="158.58682">Age 75</tspan></text><text
       xml:space="preserve"
       style="font-size:8px;line-height:1.25;font-family:'Roboto Condensed';-inkscape-font-specification:'Roboto Condensed,  Italic';text-align:center;letter-spacing:0px;word-spacing:0px;text-anchor:middle;fill:#c27640;fill-opacity:1;stroke-width:0.75;font-weight:normal;font-style:italic;font-stretch:normal;font-variant:normal"
       x="177.32024"
       y="174.47713"
       id="text2077-7"><tspan
         sodipodi:role="line"
         id="tspan2075-3"
         style="font-size:8px;fill:#c27640;fill-opacity:1;stroke-width:0.75;-inkscape-font-specification:'Roboto Condensed,  Italic';font-family:'Roboto Condensed';font-weight:normal;font-style:italic;font-stretch:normal;font-variant:normal"
         x="177.32024"
         y="174.47713">Age 70</tspan></text><text
       xml:space="preserve"
       style="font-size:8px;line-height:1.25;font-family:'Roboto Condensed';-inkscape-font-specification:'Roboto Condensed,  Italic';text-align:center;letter-spacing:0px;word-spacing:0px;text-anchor:middle;fill:#c27640;fill-opacity:1;stroke-width:0.75;font-weight:normal;font-style:italic;font-stretch:normal;font-variant:normal"
       x="177.77344"
       y="188.61603"
       id="text2077-6"><tspan
         sodipodi:role="line"
         id="tspan2075-8"
         style="font-size:8px;fill:#c27640;fill-opacity:1;stroke-width:0.75;-inkscape-font-specification:'Roboto Condensed,  Italic';font-family:'Roboto Condensed';font-weight:normal;font-style:italic;font-stretch:normal;font-variant:normal"
         x="177.77344"
         y="188.61603">Age 65</tspan></text><text
       xml:space="preserve"
       style="font-style:italic;font-variant:normal;font-weight:normal;font-stretch:normal;font-size:8px;line-height:1.25;font-family:'Roboto Condensed';-inkscape-font-specification:'Roboto Condensed,  Italic';text-align:center;letter-spacing:0px;word-spacing:0px;text-anchor:middle;fill:#2cb889;fill-opacity:1;stroke-width:0.75"
       x="93.377991"
       y="63.451447"
       id="text2077-72"><tspan
         sodipodi:role="line"
         id="tspan2075-4"
         style="font-style:italic;font-variant:normal;font-weight:normal;font-stretch:normal;font-size:8px;font-family:'Roboto Condensed';-inkscape-font-specification:'Roboto Condensed,  Italic';fill:#2cb889;fill-opacity:1;stroke-width:0.75"
         x="94.286194"
         y="63.451447">force of interest, δ(t) </tspan></text><text
       xml:space="preserve"
       style="font-size:8px;line-height:1.25;font-family:'Roboto Condensed';-inkscape-font-specification:'Roboto Condensed,  Italic';text-align:center;letter-spacing:0px;word-spacing:0px;text-anchor:middle;fill:#c27640;fill-opacity:1;stroke-width:0.75;font-weight:normal;font-style:italic;font-stretch:normal;font-variant:normal"
       x="102.62508"
       y="173.09198"
       id="text2077-72-3"><tspan
         sodipodi:role="line"
         id="tspan2075-4-6"
         style="font-size:8px;fill:#c27640;fill-opacity:1;stroke-width:0.75;-inkscape-font-specification:'Roboto Condensed,  Italic';font-family:'Roboto Condensed';font-weight:normal;font-style:italic;font-stretch:normal;font-variant:normal"
         x="103.54109"
         y="173.09198">force of mortality, μ(x,t) </tspan></text></g></svg>
