<?xml version="1.0" encoding="UTF-8" standalone="no"?>
<!-- Created with Inkscape (http://www.inkscape.org/) -->

<svg
   version="1.1"
   id="svg166668"
   xml:space="preserve"
   width="233.56699"
   height="279.75616"
   viewBox="0 0 233.56699 279.75616"
   sodipodi:docname="IntMort.svg"
   inkscape:version="1.1 (c68e22c387, 2021-05-23)"
   xmlns:inkscape="http://www.inkscape.org/namespaces/inkscape"
   xmlns:sodipodi="http://sodipodi.sourceforge.net/DTD/sodipodi-0.dtd"
   xmlns="http://www.w3.org/2000/svg"
   xmlns:svg="http://www.w3.org/2000/svg"><defs
     id="defs166672"><clipPath
       clipPathUnits="userSpaceOnUse"
       id="clipPath166686"><path
         d="m 23.773,77 h 150.746 v 1 H 23.773 Z"
         id="path166684" /></clipPath><clipPath
       clipPathUnits="userSpaceOnUse"
       id="clipPath166696"><path
         d="M 23.773,58 H 174 V 95 H 23.773 Z"
         id="path166694" /></clipPath><clipPath
       clipPathUnits="userSpaceOnUse"
       id="clipPath166706"><path
         d="M 23.773,34 H 173 v 70 H 23.773 Z"
         id="path166704" /></clipPath><clipPath
       clipPathUnits="userSpaceOnUse"
       id="clipPath166598"><path
         d="M 26.625,41 H 174 V 91 H 26.625 Z"
         id="path166596" /></clipPath><clipPath
       clipPathUnits="userSpaceOnUse"
       id="clipPath166608"><path
         d="M 26.625,50 H 174 V 83 H 26.625 Z"
         id="path166606" /></clipPath></defs><sodipodi:namedview
     id="namedview166670"
     pagecolor="#ffffff"
     bordercolor="#666666"
     borderopacity="1.0"
     inkscape:pageshadow="2"
     inkscape:pageopacity="0.0"
     inkscape:pagecheckerboard="0"
     showgrid="false"
     fit-margin-top="0"
     fit-margin-left="0"
     fit-margin-right="0"
     fit-margin-bottom="0"
     inkscape:zoom="1.8481291"
     inkscape:cx="66.283249"
     inkscape:cy="115.25169"
     inkscape:window-width="1920"
     inkscape:window-height="986"
     inkscape:window-x="-11"
     inkscape:window-y="-11"
     inkscape:window-maximized="1"
     inkscape:current-layer="g166674" /><g
     id="g166674"
     inkscape:groupmode="layer"
     inkscape:label="PhiRho"
     transform="matrix(1.3333333,0,0,1.3333333,-2.9989999,-29.166981)"><g
       id="g166680"><g
         id="g166682"
         clip-path="url(#clipPath166686)"><path
           d="M 23.773,77.496 H 174.52"
           style="fill:none;stroke:#000000;stroke-width:0.213396;stroke-linecap:butt;stroke-linejoin:round;stroke-miterlimit:10;stroke-dasharray:none;stroke-opacity:0.501961"
           id="path166688" /></g></g><g
       id="g166690"><g
         id="g166692"
         clip-path="url(#clipPath166696)"><path
           d="m 6.816,65.816 0.942,20.125 0.941,8.204 0.942,-2.774 0.945,-6.414 0.941,-4.785 0.942,-3.242 0.941,-1.871 0.942,-0.532 0.945,0.289 0.941,0.411 0.942,0.343 0.941,0.098 0.942,-0.262 0.941,-0.301 0.945,0.192 0.942,0.683 0.941,1.063 0.941,1.34 0.942,1.41 0.945,0.945 0.942,0.371 0.941,-0.269 0.941,-0.965 0.942,-1.43 0.945,-0.898 0.942,-0.117 0.941,0.617 0.941,1.293 0.942,1.812 0.945,1.403 0.941,0.59 0.942,-0.247 0.941,-1.113 0.942,-1.93 0.945,-2.039 0.941,-1.679 0.942,-1.321 0.941,-0.984 0.942,-0.644 0.945,0.042 0.941,1.059 0.942,2.09 0.941,3.109 0.942,4.125 0.941,3.817 0.945,1.5 0.942,-1.028 0.941,-3.601 0.941,-6.192 0.942,-7.254 0.945,-4.796 0.942,-1.864 0.941,1.024 0.941,3.871 0.942,5.828 0.945,4.547 0.942,2.519 0.941,0.477 0.941,-1.586 0.942,-3.309 0.945,-3.066 0.941,-2.121 0.942,-1.199 0.941,-0.317 0.942,0.551 0.945,1.25 0.941,1.856 0.942,2.437 0.941,2.981 0.942,3.417 0.945,2.368 0.941,0.047 0.942,-2.301 0.941,-4.641 0.942,-6.918 0.941,-6.859 0.945,-3.735 0.942,-0.41 0.941,2.91 0.942,6.211 0.941,7.614 0.945,5.207 0.942,2.351 0.941,-0.5 0.941,-3.347 0.942,-5.18 0.945,-3.817 0.942,-1.808 0.941,0.203 0.941,2.227 0.942,3.773 0.945,2.867 0.942,1.176 0.941,-0.516 0.941,-2.207 0.942,-3.687 0.945,-3.469 0.941,-2.414 0.942,-1.355 0.941,-0.301 0.942,0.75 0.945,1.523 0.941,2.094 0.942,2.641 0.941,3.187 0.942,3.695 0.941,3.239 0.945,1.648 h 0.942 l 0.941,-1.668 0.942,-3.32 0.941,-3.949 0.945,-2.758 0.942,-1.391 0.941,-0.023 0.941,1.343 0.942,2.2 0.945,1.664 0.942,0.894 0.941,0.129 0.941,-0.64 0.942,-1.227 0.945,-1.02 0.942,-0.605 0.941,-0.219 0.941,0.141 0.942,0.379 0.945,0.105 0.941,-0.355 0.942,-0.778 0.941,-1.14 0.942,-1.418 0.945,-1.274 0.941,-0.882 0.942,-0.52 0.941,-0.16 0.942,0.184 0.945,0.296 0.941,0.149 0.942,-0.016 0.941,-0.195 0.942,-0.387 0.941,-0.461 0.945,-0.347 0.942,-0.207 0.941,-0.055 0.942,0.098 0.941,0.148 0.945,-0.09 0.942,-0.355 0.941,-0.618 0.941,-0.875 0.942,-1.054 0.945,-0.992 0.942,-0.887 0.941,-0.82 0.941,-0.774 0.942,-0.734 0.945,-0.614 0.942,-0.476 0.941,-0.363 0.941,-0.274 0.942,-0.176 0.945,0.047 0.941,0.379 0.942,0.727 0.941,1.093 0.942,1.477 0.945,1.816 0.941,2.079 0.942,2.308 0.941,2.5 0.942,2.633 0.941,1.555 0.945,-1.118 0.942,-3.863"
           style="fill:none;stroke:#bf6524;stroke-width:0.853583;stroke-linecap:butt;stroke-linejoin:round;stroke-miterlimit:10;stroke-dasharray:none;stroke-opacity:1"
           id="path166698" /></g></g><g
       id="g166700"><g
         id="g166702"
         clip-path="url(#clipPath166706)"><path
           d="m 6.816,78.344 0.942,-0.028 0.941,-0.382 0.942,-0.664 0.945,-0.344 0.941,0.121 0.942,0.492 0.941,0.461 0.942,0.293 0.945,-0.004 0.941,-0.344 0.942,-0.566 0.941,-0.356 0.942,-0.027 0.941,0.211 0.945,0.109 0.942,-0.046 0.941,-0.118 0.941,-0.168 0.942,-0.183 0.945,-0.106 0.942,0.016 0.941,0.16 0.941,0.305 0.942,0.402 0.945,0.285 0.942,0.11 0.941,-0.032 0.941,-0.054 0.942,-0.035 0.945,0.039 0.941,0.136 0.942,0.215 0.941,0.25 0.942,0.27 0.945,0.289 0.941,0.312 0.942,0.309 0.941,0.203 0.942,0.082 0.945,-0.047 0.941,-0.172 0.942,-0.265 0.941,-0.223 0.942,-0.137 0.941,-0.066 0.945,-0.047 0.942,-0.031 0.941,0.019 0.941,0.219 0.942,0.387 0.945,0.265 0.942,0.071 0.941,-0.188 0.941,-0.707 0.942,-1.176 0.945,-1.191 0.942,-1.086 0.941,-0.922 0.941,-0.535 0.942,-0.094 0.945,0.274 0.941,0.34 0.942,0.289 0.941,0.097 0.942,-0.133 0.945,-0.371 0.941,-0.64 0.942,-0.922 0.941,-1.199 0.942,-1.446 0.945,-1.57 0.941,-1.223 0.942,-0.761 0.941,-0.2 0.942,0.719 0.941,1.637 0.945,2.23 0.942,2.735 0.941,2.945 0.942,2.059 0.941,0.914 0.945,-0.028 0.942,-0.207 0.941,-0.086 0.941,0.481 0.942,1.152 0.945,1.692 0.942,1.703 0.941,1.586 0.941,1.195 0.942,-0.258 0.945,-1.719 0.942,-2.152 0.941,-2.344 0.941,-2.23 0.942,-0.863 0.945,0.543 0.941,0.757 0.942,0.68 0.941,0.516 0.942,0.031 0.945,-0.543 0.941,-1.156 0.942,-1.922 0.941,-2.535 0.942,-2.282 0.941,-1.785 0.945,-1.226 0.942,-0.446 0.941,0.192 0.942,0.027 0.941,-0.332 0.945,-0.582 0.942,-0.402 0.941,-0.117 0.941,0.136 0.942,0.242 0.945,0.27 0.942,0.098 0.941,-0.121 0.941,-0.528 0.942,-1.676 0.945,-3.031 0.942,-4.254 0.941,-4.871 0.941,-5.152 0.942,-4.676 0.945,-4.004 0.941,-3.125 0.942,-1.449 0.941,1.031 0.942,5.977 0.945,11.371 0.941,14.863 0.942,11.774 0.941,7.257 0.942,3.59 0.945,2.766 0.941,2.461 0.942,1.422 0.941,0.214 0.942,-1.066 0.941,-2.687 0.945,-3.965 0.942,-3.481 0.941,-2.539 0.942,-1.347 0.941,0.804 0.945,3.172 0.942,4.813 0.941,3.714 0.941,2.27 0.942,2.02 0.945,2.054 0.942,1.668 0.941,-0.351 0.941,-2.754 0.942,-4.633 0.945,-4.422 0.942,-3.68 0.941,-2.972 0.941,-2.266 0.942,-1.613 0.945,-1.227 0.941,-0.781 0.942,0.195 0.941,1.305 0.942,2.266 0.945,2.703 0.941,2.996 0.942,3.133 0.941,2.742 0.942,2.121 0.941,1.105 0.945,0.036 0.942,-0.79"
           style="fill:none;stroke:#2cb889;stroke-width:0.853583;stroke-linecap:butt;stroke-linejoin:round;stroke-miterlimit:10;stroke-dasharray:none;stroke-opacity:1"
           id="path166708" /></g></g><path
       d="m 23.773,110.387 v -2.742"
       style="fill:none;stroke:#4d4d4d;stroke-width:0.213396;stroke-linecap:butt;stroke-linejoin:round;stroke-miterlimit:10;stroke-dasharray:none;stroke-opacity:1"
       id="path166716" /><path
       d="m 42.617,110.387 v -2.742"
       style="fill:none;stroke:#4d4d4d;stroke-width:0.213396;stroke-linecap:butt;stroke-linejoin:round;stroke-miterlimit:10;stroke-dasharray:none;stroke-opacity:1"
       id="path166718" /><path
       d="m 61.461,110.387 v -2.742"
       style="fill:none;stroke:#4d4d4d;stroke-width:0.213396;stroke-linecap:butt;stroke-linejoin:round;stroke-miterlimit:10;stroke-dasharray:none;stroke-opacity:1"
       id="path166720" /><path
       d="m 80.305,110.387 v -2.742"
       style="fill:none;stroke:#4d4d4d;stroke-width:0.213396;stroke-linecap:butt;stroke-linejoin:round;stroke-miterlimit:10;stroke-dasharray:none;stroke-opacity:1"
       id="path166722" /><path
       d="m 99.148,110.387 v -2.742"
       style="fill:none;stroke:#4d4d4d;stroke-width:0.213396;stroke-linecap:butt;stroke-linejoin:round;stroke-miterlimit:10;stroke-dasharray:none;stroke-opacity:1"
       id="path166724" /><path
       d="m 117.992,110.387 v -2.742"
       style="fill:none;stroke:#4d4d4d;stroke-width:0.213396;stroke-linecap:butt;stroke-linejoin:round;stroke-miterlimit:10;stroke-dasharray:none;stroke-opacity:1"
       id="path166726" /><path
       d="m 136.836,110.387 v -2.742"
       style="fill:none;stroke:#4d4d4d;stroke-width:0.213396;stroke-linecap:butt;stroke-linejoin:round;stroke-miterlimit:10;stroke-dasharray:none;stroke-opacity:1"
       id="path166728" /><path
       d="m 155.676,110.387 v -2.742"
       style="fill:none;stroke:#4d4d4d;stroke-width:0.213396;stroke-linecap:butt;stroke-linejoin:round;stroke-miterlimit:10;stroke-dasharray:none;stroke-opacity:1"
       id="path166730" /><path
       d="m 174.52,110.387 v -2.742"
       style="fill:none;stroke:#4d4d4d;stroke-width:0.213396;stroke-linecap:butt;stroke-linejoin:round;stroke-miterlimit:10;stroke-dasharray:none;stroke-opacity:1"
       id="path166732" /><text
       style="font-variant:normal;font-weight:normal;font-size:5.6px;font-family:'Roboto Condensed';-inkscape-font-specification:RobotoCondensed-Regular;writing-mode:lr-tb;fill:#4d4d4d;fill-opacity:1;fill-rule:nonzero;stroke:none"
       id="text166748"
       x="18.246094"
       y="116.55859"><tspan
         x="18.246094 21.006893 23.767694 26.528494 39.352493 40.326893 43.087696 55.911694 58.672493 61.433292 64.194099 77.012497 77.986893 80.747696 95.850891 96.825294 99.58609 114.68929 115.6637 118.42449 133.58203 134.55643 137.31723 150.14124 152.90202 155.66283 158.42363 171.24203 172.21643 174.97723"
         y="116.55859"
         sodipodi:role="line"
         id="tspan166734">1860'801900'20'40'60'802000'20</tspan><tspan
         x="14.691404 16.080204"
         y="109.63672"
         sodipodi:role="line"
         id="tspan166736">-6</tspan><tspan
         x="14.691404 16.080204"
         y="94.5625"
         sodipodi:role="line"
         id="tspan166738">-3</tspan><tspan
         x="16.078121"
         y="79.488281"
         id="tspan166740">0</tspan><tspan
         x="16.078121"
         y="64.414055"
         id="tspan166742">3</tspan><tspan
         x="16.082027"
         y="49.339832"
         id="tspan166744">6</tspan><tspan
         x="16.078121"
         y="34.265614"
         id="tspan166746">9</tspan></text><path
       d="m 21.035,107.645 h 2.738"
       style="fill:none;stroke:#4d4d4d;stroke-width:0.213396;stroke-linecap:butt;stroke-linejoin:round;stroke-miterlimit:10;stroke-dasharray:none;stroke-opacity:1"
       id="path166750" /><path
       d="m 21.035,92.57 h 2.738"
       style="fill:none;stroke:#4d4d4d;stroke-width:0.213396;stroke-linecap:butt;stroke-linejoin:round;stroke-miterlimit:10;stroke-dasharray:none;stroke-opacity:1"
       id="path166752" /><path
       d="m 21.035,77.496 h 2.738"
       style="fill:none;stroke:#4d4d4d;stroke-width:0.213396;stroke-linecap:butt;stroke-linejoin:round;stroke-miterlimit:10;stroke-dasharray:none;stroke-opacity:1"
       id="path166754" /><path
       d="m 21.035,62.422 h 2.738"
       style="fill:none;stroke:#4d4d4d;stroke-width:0.213396;stroke-linecap:butt;stroke-linejoin:round;stroke-miterlimit:10;stroke-dasharray:none;stroke-opacity:1"
       id="path166756" /><path
       d="m 21.035,47.348 h 2.738"
       style="fill:none;stroke:#4d4d4d;stroke-width:0.213396;stroke-linecap:butt;stroke-linejoin:round;stroke-miterlimit:10;stroke-dasharray:none;stroke-opacity:1"
       id="path166758" /><path
       d="m 21.035,32.273 h 2.738"
       style="fill:none;stroke:#4d4d4d;stroke-width:0.213396;stroke-linecap:butt;stroke-linejoin:round;stroke-miterlimit:10;stroke-dasharray:none;stroke-opacity:1"
       id="path166760" /><text
       transform="rotate(-90)"
       style="font-variant:normal;font-weight:normal;font-size:7px;font-family:'Roboto Condensed';-inkscape-font-specification:RobotoCondensed-Regular;writing-mode:lr-tb;fill:#000000;fill-opacity:1;fill-rule:nonzero;stroke:none"
       id="text166768"
       x="-97.289062"
       y="10.457031"><tspan
         x="-97.289062 -93.257065 -90.268066 -86.992065 -84.864059 -81.511063 -78.067062 -74.791061 -73.188065 -69.961067 -66.587067 -63.234062 -59.853062 -56.409061 -53.133064 -51.530064 -49.339062 -44.915062"
         y="10.457031"
         sodipodi:role="line"
         id="tspan166766">Average change (%)</tspan></text><g
       id="g166592"
       transform="matrix(1.0182795,0,0,1,-3.2617892,108.36662)"><g
         id="g166594"
         clip-path="url(#clipPath166598)"><path
           d="m 9.984,84.637 0.926,0.304 0.922,0.391 0.926,0.227 0.926,0.035 0.921,-0.055 0.926,-0.062 0.926,-0.024 0.922,0.039 0.926,0.078 0.925,0.067 0.922,0.008 0.926,-0.043 0.922,-0.079 0.926,-0.089 0.926,-0.098 0.921,-0.102 0.926,-0.093 0.926,-0.071 0.922,-0.039 0.926,-0.015 h 0.925 l 0.922,0.007 0.926,0.02 0.922,0.016 1.852,0.039 0.921,0.023 0.926,0.047 0.926,0.09 0.922,0.125 0.926,0.164 0.925,0.191 0.922,0.203 0.926,0.204 0.922,0.199 0.926,0.211 0.926,0.226 0.921,0.235 0.926,0.234 0.926,0.227 0.922,0.222 0.926,0.219 0.925,0.23 0.922,0.27 0.926,0.309 0.922,0.32 0.926,0.297 0.925,0.25 0.922,0.191 0.926,0.153 0.926,0.128 0.922,0.118 0.926,0.113 0.925,0.078 0.922,0.004 0.926,-0.09 0.922,-0.184 0.926,-0.277 0.925,-0.351 0.922,-0.391 0.926,-0.387 0.926,-0.375 0.922,-0.359 0.926,-0.363 0.921,-0.383 0.926,-0.418 0.926,-0.473 0.922,-0.535 0.926,-0.609 0.925,-0.692 0.922,-0.789 0.926,-0.887 0.926,-0.976 0.922,-1.074 0.926,-1.137 0.921,-1.129 0.926,-0.996 0.926,-0.738 0.922,-0.368 0.926,-0.007 0.925,0.273 0.922,0.387 0.926,0.418 0.926,0.394 0.922,0.364 0.925,0.367 0.922,0.472 0.926,0.629 0.926,0.836 0.922,1.047 0.926,1.117 0.925,0.981 0.922,0.75 0.926,0.453 0.926,0.144 0.922,-0.031 0.925,-0.035 0.922,0.012 0.926,0.07 0.926,0.141 0.922,0.172 0.926,0.136 0.925,0.035 0.922,-0.168 0.926,-0.425 0.926,-0.645 0.922,-0.793 0.925,-0.887 0.922,-0.917 0.926,-0.907 0.926,-0.945 0.922,-1.039 0.926,-1.149 0.925,-1.207 0.922,-1.207 0.926,-1.152 0.926,-1.066 0.922,-0.989 0.925,-0.941 0.922,-0.945 0.926,-1.004 0.926,-1.176 0.922,-1.457 0.925,-1.801 0.926,-2.14 0.922,-2.438 0.926,-2.625 0.926,-2.738 0.922,-2.778 0.925,-2.722 0.922,-2.543 0.926,-2.141 0.926,-1.504 0.922,-0.719 0.925,-0.097 0.926,0.305 0.922,0.527 0.926,0.723 0.922,0.91 0.926,1.035 0.925,1.082 0.922,1.039 0.926,0.871 0.926,0.609 0.922,0.368 0.925,0.195 0.926,0.113 0.922,0.195 0.926,0.454 0.922,0.851 0.926,1.188 0.925,1.429 0.922,1.676 0.926,1.957 0.926,2.246 0.922,2.348 0.925,2.184 0.926,1.746 0.922,1.281 0.926,0.867 0.922,0.512 0.925,0.234 0.926,0.024 0.922,-0.137 0.926,-0.227 0.926,-0.183 0.922,0.019 0.925,0.379 0.926,0.813 0.922,1.324 0.926,1.902 0.922,2.473 0.925,3.004 0.926,3.406 0.922,3.621 0.926,3.68"
           style="fill:none;stroke:#2cb889;stroke-width:0.853583;stroke-linecap:butt;stroke-linejoin:round;stroke-miterlimit:10;stroke-dasharray:none;stroke-opacity:1"
           id="path166600" /></g></g><g
       id="g166602"
       transform="matrix(1.0182795,0,0,1,-3.2617892,108.36662)"><g
         id="g166604"
         clip-path="url(#clipPath166608)"><path
           d="m 9.984,56.875 0.926,-0.125 0.922,-0.383 0.926,-0.383 0.926,-0.304 0.921,-0.246 0.926,-0.184 0.926,-0.086 0.922,0.063 0.926,0.199 0.925,0.289 0.922,0.32 0.926,0.278 0.922,0.171 0.926,0.036 0.926,-0.067 0.921,-0.125 0.926,-0.14 0.926,-0.11 0.922,-0.039 0.926,0.004 0.925,0.023 0.922,0.008 0.926,-0.023 0.922,-0.082 0.926,-0.129 0.926,-0.172 0.921,-0.199 0.926,-0.223 0.926,-0.23 0.922,-0.231 0.926,-0.215 0.925,-0.191 0.922,-0.137 0.926,-0.066 h 0.922 l 0.926,0.051 0.926,0.078 0.921,0.086 0.926,0.086 0.926,0.058 0.922,-0.004 0.926,-0.097 0.925,-0.231 0.922,-0.406 0.926,-0.578 0.922,-0.66 0.926,-0.621 0.925,-0.469 0.922,-0.192 0.926,0.137 0.926,0.348 0.922,0.422 0.926,0.367 0.925,0.211 0.922,0.004 0.926,-0.129 0.922,-0.153 0.926,-0.07 0.925,0.094 0.922,0.328 0.926,0.5 0.926,0.586 0.922,0.605 0.926,0.563 0.921,0.48 0.926,0.391 0.926,0.328 0.922,0.289 1.851,0.531 0.922,0.309 0.926,0.383 0.926,0.5 0.922,0.64 0.926,0.805 0.921,0.918 0.926,0.91 0.926,0.781 0.922,0.536 0.926,0.238 0.925,-0.043 0.922,-0.203 0.926,-0.27 0.926,-0.254 0.922,-0.187 0.925,-0.109 0.922,-0.09 0.926,-0.133 0.926,-0.231 0.922,-0.359 0.926,-0.445 0.925,-0.43 0.922,-0.34 0.926,-0.207 0.926,-0.039 0.922,0.07 0.925,0.114 0.922,0.125 0.926,0.121 0.926,0.113 0.922,0.113 0.926,0.121 0.925,0.133 0.922,0.168 0.926,0.211 0.926,0.215 0.922,0.187 0.925,0.184 0.922,0.188 0.926,0.218 0.926,0.313 0.922,0.457 0.926,0.578 0.925,0.637 0.922,0.64 0.926,0.59 0.926,0.496 0.922,0.422 0.925,0.375 0.922,0.352 0.926,0.371 0.926,0.465 0.922,0.617 0.925,0.816 0.926,1.031 0.922,1.231 0.926,1.383 0.926,1.484 0.922,1.531 0.925,1.516 0.922,1.422 0.926,1.215 0.926,0.89 0.922,0.504 0.925,0.207 0.926,0.016 0.922,-0.086 0.926,-0.184 0.922,-0.265 0.926,-0.328 0.925,-0.348 0.922,-0.336 0.926,-0.258 0.926,-0.133 0.922,-0.019 0.925,0.07 0.926,0.117 0.922,0.094 h 0.926 l 0.922,-0.152 0.926,-0.274 0.925,-0.343 0.922,-0.407 0.926,-0.496 0.926,-0.582 0.922,-0.594 0.925,-0.488 0.926,-0.277 0.922,-0.07 0.926,0.105 0.922,0.234 0.925,0.325 0.926,0.375 0.922,0.402 0.926,0.418 0.926,0.383 0.922,0.304 0.925,0.168 h 0.926 l 0.922,-0.211 0.926,-0.453 0.922,-0.715 0.925,-0.976 0.926,-1.18 0.922,-1.254 0.926,-1.207"
           style="fill:none;stroke:#bf6524;stroke-width:0.853583;stroke-linecap:butt;stroke-linejoin:round;stroke-miterlimit:10;stroke-dasharray:none;stroke-opacity:1"
           id="path166610" /></g></g><path
       d="m 23.849903,218.03862 v -2.738"
       style="fill:none;stroke:#4d4d4d;stroke-width:0.215337;stroke-linecap:butt;stroke-linejoin:round;stroke-miterlimit:10;stroke-dasharray:none;stroke-opacity:1"
       id="path166618" /><path
       d="m 42.671781,218.03862 v -2.738"
       style="fill:none;stroke:#4d4d4d;stroke-width:0.215337;stroke-linecap:butt;stroke-linejoin:round;stroke-miterlimit:10;stroke-dasharray:none;stroke-opacity:1"
       id="path166620" /><path
       d="m 61.498751,218.03862 v -2.738"
       style="fill:none;stroke:#4d4d4d;stroke-width:0.215337;stroke-linecap:butt;stroke-linejoin:round;stroke-miterlimit:10;stroke-dasharray:none;stroke-opacity:1"
       id="path166622" /><path
       d="m 80.324703,218.03862 v -2.738"
       style="fill:none;stroke:#4d4d4d;stroke-width:0.215337;stroke-linecap:butt;stroke-linejoin:round;stroke-miterlimit:10;stroke-dasharray:none;stroke-opacity:1"
       id="path166624" /><path
       d="m 99.146579,218.03862 v -2.738"
       style="fill:none;stroke:#4d4d4d;stroke-width:0.215337;stroke-linecap:butt;stroke-linejoin:round;stroke-miterlimit:10;stroke-dasharray:none;stroke-opacity:1"
       id="path166626" /><path
       d="m 117.97355,218.03862 v -2.738"
       style="fill:none;stroke:#4d4d4d;stroke-width:0.215337;stroke-linecap:butt;stroke-linejoin:round;stroke-miterlimit:10;stroke-dasharray:none;stroke-opacity:1"
       id="path166628" /><path
       d="m 136.7995,218.03862 v -2.738"
       style="fill:none;stroke:#4d4d4d;stroke-width:0.215337;stroke-linecap:butt;stroke-linejoin:round;stroke-miterlimit:10;stroke-dasharray:none;stroke-opacity:1"
       id="path166630" /><path
       d="m 155.62545,218.03862 v -2.738"
       style="fill:none;stroke:#4d4d4d;stroke-width:0.215337;stroke-linecap:butt;stroke-linejoin:round;stroke-miterlimit:10;stroke-dasharray:none;stroke-opacity:1"
       id="path166632" /><path
       d="m 174.44835,218.03862 v -2.738"
       style="fill:none;stroke:#4d4d4d;stroke-width:0.215337;stroke-linecap:butt;stroke-linejoin:round;stroke-miterlimit:10;stroke-dasharray:none;stroke-opacity:1"
       id="path166634" /><text
       style="font-variant:normal;font-weight:normal;font-size:5.65095px;font-family:'Roboto Condensed';-inkscape-font-specification:RobotoCondensed-Regular;writing-mode:lr-tb;fill:#4d4d4d;fill-opacity:1;fill-rule:nonzero;stroke:none;stroke-width:1.0091"
       id="text166648"
       x="18.057236"
       y="226.25388"
       transform="scale(1.0090983,0.99098373)"><tspan
         x="18.057236 20.843155 23.62907 26.414993 38.993996 39.977264 42.763184 55.347851 58.133774 60.919693 63.705597 76.278969 77.26223 80.048149 94.927116 95.91037 98.696289 113.57526 114.55851 117.34441 132.28242 133.26572 136.05162 148.63629 151.42221 154.20813 156.99405 169.56743 170.55067 173.33659"
         y="226.25388"
         sodipodi:role="line"
         id="tspan166636"
         style="stroke-width:1.0091">1860'801900'20'40'60'802000'20</tspan><tspan
         x="11.588758 14.374674 15.86088"
         y="219.26904"
         sodipodi:role="line"
         id="tspan166638"
         style="stroke-width:1.0091">0.0</tspan><tspan
         x="11.588758 14.374674 15.86088"
         y="200.61266"
         sodipodi:role="line"
         id="tspan166640"
         style="stroke-width:1.0091">0.2</tspan><tspan
         x="11.588758 14.374674 15.86088"
         y="181.95625"
         sodipodi:role="line"
         id="tspan166642"
         style="stroke-width:1.0091">0.4</tspan><tspan
         x="11.592698 14.378617 15.864823"
         y="163.3038"
         sodipodi:role="line"
         id="tspan166644"
         style="stroke-width:1.0091">0.6</tspan><tspan
         x="11.588758 14.374674 15.86088"
         y="144.64742"
         sodipodi:role="line"
         id="tspan166646"
         style="stroke-width:1.0091">0.8</tspan></text><path
       d="m 21.05778,215.30062 h 2.792123"
       style="fill:none;stroke:#4d4d4d;stroke-width:0.215337;stroke-linecap:butt;stroke-linejoin:round;stroke-miterlimit:10;stroke-dasharray:none;stroke-opacity:1"
       id="path166650" /><path
       d="m 21.05778,196.81162 h 2.792123"
       style="fill:none;stroke:#4d4d4d;stroke-width:0.215337;stroke-linecap:butt;stroke-linejoin:round;stroke-miterlimit:10;stroke-dasharray:none;stroke-opacity:1"
       id="path166652" /><path
       d="m 21.05778,178.32762 h 2.792123"
       style="fill:none;stroke:#4d4d4d;stroke-width:0.215337;stroke-linecap:butt;stroke-linejoin:round;stroke-miterlimit:10;stroke-dasharray:none;stroke-opacity:1"
       id="path166654" /><path
       d="m 21.05778,159.83962 h 2.792123"
       style="fill:none;stroke:#4d4d4d;stroke-width:0.215337;stroke-linecap:butt;stroke-linejoin:round;stroke-miterlimit:10;stroke-dasharray:none;stroke-opacity:1"
       id="path166656" /><path
       d="m 21.05778,141.35062 h 2.792123"
       style="fill:none;stroke:#4d4d4d;stroke-width:0.215337;stroke-linecap:butt;stroke-linejoin:round;stroke-miterlimit:10;stroke-dasharray:none;stroke-opacity:1"
       id="path166658" /><text
       style="font-variant:normal;font-weight:normal;font-size:7.06369px;font-family:'Roboto Condensed';-inkscape-font-specification:RobotoCondensed-Regular;writing-mode:lr-tb;fill:#000000;fill-opacity:1;fill-rule:nonzero;stroke:none;stroke-width:1.0091"
       id="text166662"
       x="91.981567"
       y="233.73138"
       transform="scale(1.0090983,0.99098373)"><tspan
         x="91.981567 95.682945 98.988747 102.37227"
         y="233.73138"
         sodipodi:role="line"
         id="tspan166660"
         style="stroke-width:1.0091">Year</tspan></text><text
       transform="matrix(0,-0.99098373,1.0090983,0,0,0)"
       style="font-variant:normal;font-weight:normal;font-size:7.06369px;font-family:'Roboto Condensed';-inkscape-font-specification:RobotoCondensed-Regular;writing-mode:lr-tb;fill:#000000;fill-opacity:1;fill-rule:nonzero;stroke:none;stroke-width:1.0091"
       id="text166666"
       x="-194.24669"
       y="7.3197937"><tspan
         x="-194.24669 -190.58771 -187.28192 -183.87018 -180.65622 -179.03865 -176.95486 -175.33728 -172.32112 -170.70354 -168.61977"
         y="7.3197937"
         sodipodi:role="line"
         id="tspan166664"
         style="stroke-width:1.0091">Sensitivity</tspan></text><text
       xml:space="preserve"
       style="font-style:italic;font-variant:normal;font-weight:normal;font-stretch:normal;font-size:9.99998px;line-height:1.25;font-family:'Roboto Condensed';-inkscape-font-specification:'Roboto Condensed,  Italic';text-align:center;letter-spacing:0px;word-spacing:0px;text-anchor:middle;fill:#2cb889;fill-opacity:1;stroke-width:0.75"
       x="105.27095"
       y="31.837114"
       id="text168084"><tspan
         sodipodi:role="line"
         style="font-style:italic;font-variant:normal;font-weight:normal;font-stretch:normal;font-family:'Roboto Condensed';-inkscape-font-specification:'Roboto Condensed,  Italic';fill:#2cb889;fill-opacity:1;stroke-width:0.75"
         x="105.27095"
         y="31.837114"
         id="tspan170388">interest, δ(t)</tspan></text><text
       xml:space="preserve"
       style="font-style:italic;font-variant:normal;font-weight:normal;font-stretch:normal;font-size:9.99998px;line-height:1.25;font-family:'Roboto Condensed';-inkscape-font-specification:'Roboto Condensed,  Italic';text-align:center;letter-spacing:0px;word-spacing:0px;text-anchor:middle;fill:#2cb889;fill-opacity:1;stroke-width:0.75"
       x="60.676949"
       y="186.81918"
       id="text168084-8"><tspan
         sodipodi:role="line"
         style="font-style:italic;font-variant:normal;font-weight:normal;font-stretch:normal;font-family:'Roboto Condensed';-inkscape-font-specification:'Roboto Condensed,  Italic';fill:#2cb889;fill-opacity:1;stroke-width:0.75"
         x="60.676949"
         y="186.81918"
         id="tspan170388-5">duration</tspan></text><text
       xml:space="preserve"
       style="font-style:italic;font-variant:normal;font-weight:normal;font-stretch:normal;font-size:9.99998px;line-height:1.25;font-family:'Roboto Condensed';-inkscape-font-specification:'Roboto Condensed,  Italic';text-align:center;letter-spacing:0px;word-spacing:0px;text-anchor:middle;fill:#bf6524;fill-opacity:1;stroke-width:0.75"
       x="82.979996"
       y="55.296982"
       id="text168084-4"><tspan
         sodipodi:role="line"
         style="font-style:italic;font-variant:normal;font-weight:normal;font-stretch:normal;font-family:'Roboto Condensed';-inkscape-font-specification:'Roboto Condensed,  Italic';fill:#bf6524;fill-opacity:1;stroke-width:0.75"
         x="82.979996"
         y="55.296982"
         id="tspan170388-7">mortality, ρ(t)</tspan></text><text
       xml:space="preserve"
       style="font-style:italic;font-variant:normal;font-weight:normal;font-stretch:normal;font-size:9.99998px;line-height:1.25;font-family:'Roboto Condensed';-inkscape-font-specification:'Roboto Condensed,  Italic';text-align:center;letter-spacing:0px;word-spacing:0px;text-anchor:middle;fill:#bf6524;fill-opacity:1;stroke-width:0.75"
       x="93.772926"
       y="164.21678"
       id="text168084-4-5"><tspan
         sodipodi:role="line"
         style="font-style:italic;font-variant:normal;font-weight:normal;font-stretch:normal;font-family:'Roboto Condensed';-inkscape-font-specification:'Roboto Condensed,  Italic';fill:#bf6524;fill-opacity:1;stroke-width:0.75"
         x="93.772926"
         y="164.21678"
         id="tspan170388-7-7">entropy</tspan></text><path
       style="fill:#bf6524;fill-opacity:1;stroke:#bf6524;stroke-width:0.75px;stroke-linecap:butt;stroke-linejoin:miter;stroke-opacity:1"
       d="m 95.783553,48.729334 c 4.11294,0 4.11294,0 4.11294,0"
       id="path201710" /><text
       xml:space="preserve"
       style="font-size:9.99998px;line-height:1.25;font-family:'Roboto Condensed';-inkscape-font-specification:'Roboto Condensed, ';text-align:center;letter-spacing:0px;word-spacing:0px;text-anchor:middle;fill:#2cb889;fill-opacity:1;stroke-width:0.75"
       x="118.48771"
       y="22.895742"
       id="text212325"><tspan
         sodipodi:role="line"
         id="tspan212323"
         style="fill:#2cb889;fill-opacity:1;stroke-width:0.75"
         x="118.48771"
         y="22.895742">.</tspan></text></g></svg>
